<svg width="1920" height="617" viewBox="0 0 1920 617" fill="none" xmlns="http://www.w3.org/2000/svg">
<path d="M342.835 201.358C345.28 200.697 347.891 200.598 350.666 201.061C353.442 201.457 355.821 202.316 357.803 203.638C359.786 204.96 361.801 207.008 363.85 209.784C365.899 212.559 367.154 214.905 367.617 216.822C367.683 217.152 367.881 217.681 368.212 218.408C368.476 218.936 368.707 219.63 368.905 220.489C369.038 221.282 369.203 221.976 369.401 222.571C369.665 223.166 369.864 224.124 369.996 225.446C370.128 226.833 370.293 227.858 370.491 228.519C370.69 229.246 370.789 230.237 370.789 231.492C370.789 232.682 370.69 233.64 370.491 234.367C370.293 235.094 370.128 236.284 369.996 237.936C369.864 239.654 369.765 240.678 369.698 241.009C369.566 241.339 369.368 242.198 369.104 243.586C368.773 245.106 368.476 246.163 368.212 246.758C367.815 247.815 367.914 248.84 368.509 249.831C369.104 250.756 371.02 253.003 374.258 256.571C375.778 258.223 376.703 259.545 377.034 260.536C377.364 261.462 377.265 262.519 376.736 263.708C376.208 264.832 375.613 265.592 374.952 265.988C374.357 266.385 373.498 266.583 372.375 266.583C371.185 266.583 369.996 266.121 368.806 265.195C367.617 264.27 365.535 262.188 362.561 258.95C362.033 258.356 361.636 258.091 361.372 258.157C361.174 258.157 360.612 258.554 359.687 259.347C357.77 260.999 356.581 261.825 356.118 261.825C355.92 261.825 355.523 262.023 354.929 262.42C354.334 262.75 353.772 262.982 353.244 263.114C352.781 263.18 352.153 263.378 351.36 263.708C350.501 264.039 348.75 264.204 346.106 264.204C343.529 264.138 341.712 263.907 340.654 263.51C334.244 260.999 329.453 256.439 326.281 249.831C325.753 248.707 325.488 248.08 325.488 247.947C325.488 247.749 325.29 247.187 324.893 246.262C324.497 245.271 324.266 244.445 324.2 243.784C324.133 243.057 323.968 242.396 323.704 241.802C323.373 241.009 323.208 238.696 323.208 234.863C323.208 231.03 323.373 228.75 323.704 228.023C324.034 227.362 324.233 226.338 324.299 224.95C324.431 223.496 324.662 222.307 324.993 221.382C325.323 220.39 325.521 219.663 325.587 219.201C325.852 217.747 326.975 215.434 328.958 212.262C329.685 211.139 330.114 210.445 330.246 210.18C330.511 209.718 331.271 208.859 332.526 207.603C333.782 206.281 334.641 205.488 335.103 205.224C335.302 205.026 335.963 204.563 337.086 203.836C338.077 203.109 338.639 202.746 338.771 202.746C338.903 202.746 339.234 202.614 339.762 202.349C340.225 202.085 341.249 201.755 342.835 201.358ZM351.162 211.965C350.303 211.502 349.543 211.304 348.882 211.37C348.221 211.37 347.164 211.634 345.71 212.163C344.719 212.493 343.827 212.791 343.034 213.055C341.58 213.518 339.895 215.071 337.978 217.714C336.128 220.357 335.07 222.67 334.806 224.653C334.674 225.644 334.542 226.239 334.41 226.437C334.211 226.767 334.079 227.825 334.013 229.609C333.881 231.327 333.749 232.715 333.617 233.772C333.088 237.143 333.749 240.777 335.599 244.676C337.515 248.509 340.027 251.318 343.133 253.102C344.586 254.027 346.272 254.291 348.188 253.895C350.171 253.498 351.955 252.54 353.541 251.02C354.268 250.359 354.598 249.831 354.532 249.434C354.466 249.038 353.937 248.278 352.946 247.154C352.021 246.229 351.228 245.337 350.567 244.478C349.906 243.553 349.411 242.925 349.08 242.595C347.494 240.81 346.602 239.026 346.404 237.242C346.272 235.391 346.8 234.004 347.99 233.078C349.245 232.153 350.931 231.889 353.045 232.285C353.508 232.352 354.367 233.012 355.623 234.268C356.878 235.457 357.671 236.383 358.002 237.043C358.662 238.299 359.224 238.729 359.687 238.332C360.017 237.936 360.083 235.656 359.885 231.492C359.753 227.329 359.488 224.719 359.092 223.661C358.762 222.868 358.596 222.373 358.596 222.175C358.596 221.778 358.101 220.589 357.109 218.606C355.59 215.434 353.607 213.22 351.162 211.965ZM404.733 227.527C406.781 226.602 408.565 226.767 410.085 228.023C411.605 229.213 412.365 231.129 412.365 233.772C412.365 235.16 412.464 236.647 412.663 238.233C412.861 239.819 412.96 241.141 412.96 242.198C412.96 243.255 413.092 244.181 413.357 244.974C413.621 245.767 413.819 246.725 413.951 247.848C414.083 248.972 414.282 250.062 414.546 251.119C414.877 252.177 415.108 253.135 415.24 253.994C415.306 254.853 415.504 255.679 415.835 256.472C416.231 257.596 416.463 258.95 416.529 260.536C416.595 262.122 416.463 263.246 416.132 263.907C415.537 265.096 414.48 265.889 412.96 266.286C411.506 266.748 410.251 266.616 409.193 265.889C407.673 264.898 406.748 263.808 406.418 262.618C406.219 261.957 406.021 261.627 405.823 261.627C405.625 261.627 405.129 261.99 404.336 262.717C403.477 263.444 402.519 264.105 401.461 264.7C400.404 265.294 399.578 265.592 398.983 265.592C398.455 265.592 397.728 265.691 396.802 265.889C395.877 266.087 394.126 265.988 391.549 265.592C389.302 265.261 387.121 264.072 385.006 262.023C382.892 259.909 381.57 257.695 381.041 255.382C380.843 254.391 380.612 253.432 380.348 252.507C380.017 251.318 379.819 249.798 379.753 247.947C379.687 245.965 379.588 244.643 379.455 243.982C379.323 243.057 379.257 241.009 379.257 237.836C379.257 234.598 379.356 232.649 379.555 231.988C380.083 230.072 381.339 228.882 383.321 228.42C385.37 227.891 387.154 228.353 388.674 229.807C389.137 230.27 389.401 230.832 389.467 231.492C389.599 232.087 389.698 234.07 389.765 237.44C389.831 241.735 389.996 244.346 390.26 245.271C390.525 246.196 390.723 247.452 390.855 249.038C391.053 251.02 391.549 252.606 392.342 253.796C393.201 254.985 394.291 255.58 395.613 255.58C396.208 255.58 396.935 254.952 397.794 253.697C398.653 252.441 399.148 251.252 399.281 250.128C399.413 249.467 399.644 248.873 399.975 248.344C400.239 247.749 400.437 246.163 400.569 243.586C400.701 241.075 400.9 239.555 401.164 239.026C401.494 238.497 401.693 236.911 401.759 234.268C401.825 231.03 402.056 229.411 402.453 229.411C402.585 229.411 402.75 229.213 402.948 228.816C403.213 228.42 403.807 227.99 404.733 227.527ZM449.685 201.16C450.213 200.962 450.874 200.895 451.667 200.962C452.46 200.962 452.989 201.061 453.253 201.259C453.584 201.523 453.815 201.655 453.947 201.655C454.212 201.655 454.608 202.019 455.137 202.746C455.665 203.473 455.963 204.034 456.029 204.431C456.095 204.96 456.26 205.587 456.524 206.314C456.789 207.041 456.921 216.425 456.921 234.466C456.987 252.441 456.888 261.693 456.624 262.222C456.359 262.618 456.161 262.982 456.029 263.312C455.698 263.907 454.872 264.468 453.551 264.997C452.295 265.526 451.039 265.79 449.784 265.79C449.057 265.79 448.198 265.889 447.207 266.087C446.281 266.352 443.968 266.484 440.268 266.484C436.633 266.55 434.386 266.484 433.527 266.286C432.932 266.087 431.974 265.856 430.653 265.592C429.265 265.195 427.447 264.369 425.201 263.114C423.02 261.792 421.929 260.867 421.929 260.338C421.929 260.272 421.665 259.942 421.136 259.347C420.608 258.686 420.343 258.256 420.343 258.058C420.343 257.86 420.178 257.563 419.848 257.166C419.319 256.505 418.923 254.952 418.658 252.507C418.46 249.996 418.493 247.914 418.757 246.262C418.89 245.601 419.022 244.808 419.154 243.883C419.286 242.958 419.484 242.33 419.749 242C420.013 241.603 420.244 241.141 420.443 240.612C421.169 238.63 422.888 236.647 425.597 234.664C428.307 232.616 431.049 231.327 433.825 230.799C434.882 230.6 435.642 230.402 436.104 230.204C436.633 230.006 438.351 229.873 441.259 229.807C444.167 229.741 445.72 229.642 445.918 229.51C446.182 229.378 446.314 225.148 446.314 216.822C446.314 210.544 446.348 206.843 446.414 205.72C446.48 204.596 446.678 203.803 447.008 203.341C447.669 202.217 448.561 201.49 449.685 201.16ZM445.819 241.405C445.555 241.141 445.257 241.009 444.927 241.009C444.596 240.942 443.44 240.876 441.457 240.81C438.946 240.81 437.492 240.876 437.096 241.009C434.32 241.735 432.371 242.595 431.247 243.586C430.124 244.577 429.463 245.965 429.265 247.749C428.934 251.053 429.397 253.201 430.653 254.192C431.974 255.117 435.113 255.58 440.07 255.58C440.532 255.58 441.127 255.58 441.854 255.58C444.167 255.646 445.488 255.481 445.819 255.084C446.215 254.688 446.414 253.366 446.414 251.119C446.414 250.392 446.414 249.831 446.414 249.434C446.48 246.196 446.48 244.148 446.414 243.288C446.348 242.429 446.149 241.802 445.819 241.405ZM490.148 201.16C490.677 200.962 491.338 200.895 492.131 200.962C492.924 200.962 493.453 201.061 493.717 201.259C494.047 201.523 494.279 201.655 494.411 201.655C494.675 201.655 495.072 202.019 495.6 202.746C496.129 203.473 496.426 204.034 496.492 204.431C496.559 204.96 496.724 205.587 496.988 206.314C497.252 207.041 497.385 216.425 497.385 234.466C497.451 252.441 497.352 261.693 497.087 262.222C496.823 262.618 496.625 262.982 496.492 263.312C496.162 263.907 495.336 264.468 494.014 264.997C492.759 265.526 491.503 265.79 490.248 265.79C489.521 265.79 488.661 265.889 487.67 266.087C486.745 266.352 484.432 266.484 480.731 266.484C477.097 266.55 474.85 266.484 473.991 266.286C473.396 266.087 472.438 265.856 471.116 265.592C469.728 265.195 467.911 264.369 465.664 263.114C463.483 261.792 462.393 260.867 462.393 260.338C462.393 260.272 462.129 259.942 461.6 259.347C461.071 258.686 460.807 258.256 460.807 258.058C460.807 257.86 460.642 257.563 460.311 257.166C459.783 256.505 459.386 254.952 459.122 252.507C458.924 249.996 458.957 247.914 459.221 246.262C459.353 245.601 459.485 244.808 459.618 243.883C459.75 242.958 459.948 242.33 460.212 242C460.477 241.603 460.708 241.141 460.906 240.612C461.633 238.63 463.351 236.647 466.061 234.664C468.77 232.616 471.513 231.327 474.288 230.799C475.346 230.6 476.105 230.402 476.568 230.204C477.097 230.006 478.815 229.873 481.723 229.807C484.63 229.741 486.183 229.642 486.382 229.51C486.646 229.378 486.778 225.148 486.778 216.822C486.778 210.544 486.811 206.843 486.877 205.72C486.943 204.596 487.142 203.803 487.472 203.341C488.133 202.217 489.025 201.49 490.148 201.16ZM486.282 241.405C486.018 241.141 485.721 241.009 485.39 241.009C485.06 240.942 483.903 240.876 481.921 240.81C479.41 240.81 477.956 240.876 477.559 241.009C474.784 241.735 472.834 242.595 471.711 243.586C470.587 244.577 469.927 245.965 469.728 247.749C469.398 251.053 469.861 253.201 471.116 254.192C472.438 255.117 475.577 255.58 480.533 255.58C480.996 255.58 481.59 255.58 482.317 255.58C484.63 255.646 485.952 255.481 486.282 255.084C486.679 254.688 486.877 253.366 486.877 251.119C486.877 250.392 486.877 249.831 486.877 249.434C486.943 246.196 486.943 244.148 486.877 243.288C486.811 242.429 486.613 241.802 486.282 241.405ZM503.749 226.833C505.203 226.635 506.359 226.701 507.218 227.032C507.615 227.23 508.176 227.759 508.903 228.618C509.696 229.477 510.159 230.138 510.291 230.6C510.423 231.129 510.555 231.492 510.688 231.691C510.754 231.823 510.985 232.285 511.382 233.078C511.646 233.673 511.91 234.169 512.175 234.565C512.439 234.896 512.637 235.292 512.769 235.755C512.901 236.284 513.067 236.614 513.265 236.746C513.463 236.878 513.661 237.275 513.86 237.936C514.058 238.663 514.289 239.158 514.554 239.423C514.884 239.687 515.082 240.017 515.148 240.414C515.28 240.744 515.446 241.009 515.644 241.207C516.173 241.735 516.767 242.76 517.428 244.28C517.693 244.874 517.99 245.337 518.32 245.667C518.585 245.998 518.981 246.56 519.51 247.353C520.105 248.344 520.633 248.773 521.096 248.641C521.558 248.509 522.153 247.716 522.88 246.262C523.541 244.941 523.971 244.114 524.169 243.784C524.433 243.52 524.631 243.156 524.764 242.694C524.962 242.165 525.127 241.868 525.259 241.802C525.457 241.603 525.755 241.174 526.151 240.513C527.01 238.861 527.605 237.903 527.936 237.638C528.134 237.308 528.266 236.977 528.332 236.647C528.464 236.25 528.596 235.953 528.729 235.755C528.927 235.557 529.489 234.664 530.414 233.078C531.405 231.426 531.934 230.501 532 230.303C532.33 229.444 533.057 228.519 534.181 227.527C534.907 226.933 535.965 226.668 537.353 226.734C538.806 226.734 539.897 227.032 540.624 227.627C541.945 228.75 542.639 230.171 542.705 231.889C542.838 233.607 542.309 235.325 541.119 237.043C540.789 237.506 540.624 237.803 540.624 237.936C540.624 238.134 540.326 238.663 539.732 239.522C539.203 240.381 538.773 241.174 538.443 241.901C538.179 242.562 537.914 242.958 537.65 243.09C537.386 243.222 537.187 243.52 537.055 243.982C536.923 244.511 536.659 245.007 536.262 245.469C535.998 245.866 535.866 246.13 535.866 246.262C535.866 246.394 535.601 246.824 535.073 247.551C534.147 248.939 533.586 249.93 533.388 250.525C533.255 250.921 533.024 251.384 532.694 251.912C532.297 252.375 532.099 252.705 532.099 252.904C532.099 253.036 531.901 253.366 531.504 253.895C531.174 254.358 531.008 254.688 531.008 254.886C531.008 255.018 530.843 255.316 530.513 255.778C530.182 256.241 529.951 256.704 529.819 257.166C529.687 257.497 529.456 257.926 529.125 258.455C528.861 258.917 528.662 259.314 528.53 259.644C528.464 259.909 528.299 260.239 528.035 260.636C527.704 260.966 527.407 261.462 527.143 262.122C526.878 262.717 526.68 263.048 526.548 263.114C526.416 263.18 526.283 263.477 526.151 264.006C526.019 264.468 525.821 264.865 525.557 265.195C525.292 265.592 525.094 265.988 524.962 266.385C524.83 266.847 524.631 267.244 524.367 267.574C524.103 267.971 523.805 268.466 523.475 269.061C522.682 270.515 521.129 273.39 518.816 277.685C518.684 277.883 518.453 278.247 518.122 278.776C517.858 279.37 517.659 279.767 517.527 279.965C516.8 281.287 516.404 282.047 516.338 282.245C515.875 283.038 515.545 283.666 515.347 284.128C515.016 284.723 514.752 285.153 514.554 285.417C514.289 285.681 514.091 286.078 513.959 286.607C513.562 287.796 512.736 288.886 511.481 289.878C510.291 290.869 509.135 291.365 508.011 291.365C506.557 291.365 505.236 290.671 504.046 289.283C502.857 287.961 502.361 286.507 502.559 284.921C502.625 284.393 502.923 283.501 503.451 282.245C504.046 281.056 504.476 280.329 504.74 280.064C504.938 279.932 505.104 279.602 505.236 279.073C505.368 278.478 506.293 276.76 508.011 273.918C508.606 272.795 508.903 272.134 508.903 271.936C508.903 271.738 509.102 271.374 509.498 270.846C509.895 270.317 510.093 269.986 510.093 269.854C510.093 269.722 510.225 269.491 510.489 269.16C510.688 268.896 511.018 268.367 511.481 267.574C511.943 266.583 512.34 265.823 512.67 265.294C513.926 263.048 514.554 261.726 514.554 261.329C514.554 261.131 514.025 260.107 512.968 258.256C511.91 256.406 511.249 255.283 510.985 254.886C510.655 254.556 509.895 253.333 508.705 251.219C508.573 250.954 508.044 250.062 507.119 248.542C506.326 247.22 505.797 246.295 505.533 245.767C505.269 245.238 505.004 244.775 504.74 244.379C504.542 244.048 504.178 243.355 503.65 242.297C502.923 240.909 502.493 240.083 502.361 239.819C500.841 236.845 499.916 234.731 499.585 233.475C499.321 232.153 499.519 230.865 500.18 229.609C500.643 228.684 501.105 228.023 501.568 227.627C502.097 227.23 502.824 226.966 503.749 226.833ZM601.273 202.944C601.801 202.746 602.76 202.68 604.147 202.746C605.535 202.812 606.493 202.911 607.022 203.043C608.476 203.638 609.533 204.596 610.194 205.918C610.458 206.447 610.591 208.826 610.591 213.055C610.657 217.218 610.591 219.829 610.392 220.886C610.26 221.547 610.128 222.968 609.996 225.148C609.864 227.329 609.731 228.849 609.599 229.708C609.335 231.294 608.641 232.517 607.518 233.376C606.46 234.169 605.37 234.499 604.246 234.367C603.189 234.169 602.231 233.541 601.372 232.484C600.513 231.426 600.116 230.072 600.182 228.42C600.182 227.296 600.116 226.668 599.984 226.536C599.918 226.47 598.53 226.503 595.821 226.635C593.177 226.701 591.261 226.8 590.071 226.933C583.331 227.726 579.961 226.173 579.961 222.274C579.961 218.969 582.571 217.284 587.792 217.218C589.047 217.218 590.071 217.152 590.864 217.02C591.79 216.954 593.442 216.855 595.821 216.723C598.068 216.59 599.422 216.425 599.885 216.227C600.414 216.029 600.711 215.566 600.777 214.839C600.909 213.848 600.843 213.286 600.579 213.154C600.381 212.956 599.621 212.923 598.299 213.055C597.043 213.121 595.656 213.154 594.136 213.154C592.814 213.154 590.6 213.22 587.494 213.352C584.719 213.551 583 213.551 582.34 213.352C580.423 212.691 579.399 211.337 579.267 209.288C579.134 207.24 579.994 205.753 581.844 204.827C582.901 204.233 584.95 203.902 587.99 203.836C590.171 203.77 591.657 203.671 592.45 203.539C593.177 203.407 594.763 203.308 597.209 203.241C599.588 203.109 600.942 203.01 601.273 202.944ZM628.235 203.638C629.16 203.308 630.184 203.374 631.308 203.836C632.431 204.233 633.323 204.927 633.984 205.918C634.249 206.314 634.381 207.372 634.381 209.09C634.447 210.742 634.447 216.491 634.381 226.338C634.381 239.621 634.315 247.419 634.183 249.732C634.116 251.912 634.017 254.952 633.885 258.851C633.819 262.552 633.621 264.7 633.29 265.294C632.431 266.947 631.11 267.839 629.325 267.971C627.607 268.103 626.186 267.409 625.063 265.889C624.204 264.7 623.873 262.915 624.072 260.536C624.072 260.404 624.072 260.272 624.072 260.14C624.138 259.215 623.94 258.686 623.477 258.554C623.08 258.356 621.561 258.223 618.917 258.157C618.388 258.157 617.959 258.124 617.628 258.058C613.267 257.992 610.161 257.959 608.311 257.959C605.073 257.959 602.793 257.563 601.471 256.77C600.215 255.977 599.588 254.622 599.588 252.705C599.588 250.987 600.215 249.699 601.471 248.84C602.793 247.98 604.544 247.716 606.725 248.046C608.178 248.245 611.45 248.344 616.538 248.344C621.627 248.278 624.204 248.113 624.27 247.848C624.468 247.584 624.633 244.181 624.766 237.638C624.898 231.03 624.931 224.983 624.865 219.498C624.931 215.93 624.898 213.22 624.766 211.37C624.699 209.453 624.832 207.966 625.162 206.909C625.559 205.786 625.922 205.059 626.252 204.728C626.649 204.398 627.31 204.034 628.235 203.638ZM610.095 235.259C613.201 234.797 615.679 234.995 617.529 235.854C619.38 236.713 620.305 238.101 620.305 240.017C620.305 240.678 620.239 241.042 620.107 241.108C619.974 241.174 619.875 241.405 619.809 241.802C619.479 242.991 618.686 243.784 617.43 244.181C616.241 244.577 613.564 244.841 609.401 244.974C602.264 245.172 598.53 245.37 598.2 245.568C598.068 245.634 598.002 246.394 598.002 247.848C598.002 249.038 597.935 250.69 597.803 252.805C597.605 255.58 597.473 257.53 597.407 258.653C597.275 260.437 597.109 261.693 596.911 262.42C596.713 263.147 596.283 263.841 595.622 264.501C594.235 265.889 592.715 266.319 591.063 265.79C589.411 265.261 588.32 264.006 587.792 262.023C587.395 260.636 587.329 258.686 587.593 256.175C588.254 250.756 588.419 247.584 588.089 246.659C587.957 246.328 587.725 246.163 587.395 246.163C587.131 246.097 585.809 246.163 583.43 246.361C581.183 246.494 579.564 246.46 578.573 246.262C577.648 246.064 576.789 245.601 575.996 244.874C575.004 244.015 574.509 242.859 574.509 241.405C574.509 239.885 575.004 238.696 575.996 237.836C576.59 237.308 577.218 236.977 577.879 236.845C578.606 236.647 580.159 236.515 582.538 236.449C589.08 236.118 593.31 235.854 595.226 235.656C596.349 235.524 598.96 235.457 603.057 235.457C607.154 235.457 609.5 235.391 610.095 235.259ZM691.165 204.827C692.42 204.299 693.676 204.398 694.931 205.125C696.187 205.786 697.046 206.843 697.509 208.297C697.707 209.09 697.839 213.815 697.905 222.472C697.971 231.063 697.905 237.836 697.707 242.793C697.641 243.718 697.542 245.436 697.41 247.947C697.343 250.459 697.31 252.177 697.31 253.102C697.178 256.869 697.046 259.016 696.914 259.545C696.782 260.14 696.716 260.669 696.716 261.131C696.716 263.312 695.724 264.832 693.742 265.691C691.825 266.55 690.14 266.187 688.686 264.601C687.893 263.741 687.431 262.948 687.299 262.222C687.233 261.429 687.266 258.785 687.398 254.291C687.794 242.066 687.993 230.799 687.993 220.489C687.993 213.352 688.125 209.123 688.389 207.801C688.653 206.48 689.579 205.488 691.165 204.827ZM664.995 212.956C669.225 212.824 671.835 212.857 672.826 213.055C673.818 213.187 674.776 213.716 675.701 214.641C676.824 215.764 677.221 217.053 676.89 218.507C676.626 219.961 675.701 221.117 674.115 221.976C673.652 222.241 671.835 222.406 668.663 222.472C661.856 222.736 657.825 223.034 656.57 223.364C656.239 223.496 656.041 223.728 655.975 224.058C655.975 224.322 655.942 225.347 655.876 227.131C655.744 229.906 655.611 231.988 655.479 233.376C655.215 237.01 655.083 239.389 655.083 240.513C655.149 241.57 655.314 242.165 655.578 242.297C655.975 242.429 659.279 242.528 665.491 242.595C670.646 242.595 673.685 242.661 674.611 242.793C675.602 242.925 676.494 243.321 677.287 243.982C678.41 245.04 678.774 246.394 678.377 248.046C677.981 249.699 677.023 250.888 675.503 251.615C673.52 252.54 665.987 252.705 652.902 252.111C650.787 252.045 649.234 251.747 648.243 251.219C647.318 250.69 646.525 249.765 645.864 248.443C645.6 247.848 645.434 246.527 645.368 244.478C645.302 242.363 645.401 240.381 645.666 238.53C645.798 237.539 645.897 234.268 645.963 228.717C646.095 223.694 646.26 220.589 646.459 219.399C646.657 218.143 647.252 217.02 648.243 216.029C649.829 214.377 652.373 213.551 655.876 213.551C656.801 213.551 657.693 213.485 658.552 213.352C659.477 213.22 661.625 213.088 664.995 212.956Z" fill="black"/>
<rect x="286" y="167" width="459" height="144" rx="72" stroke="black" stroke-width="8"/>
</svg>
