<svg width="467" height="152" viewBox="0 0 467 152" fill="none" xmlns="http://www.w3.org/2000/svg">
<path d="M60.8353 38.3581C63.2804 37.6972 65.8907 37.5981 68.6662 38.0607C71.4418 38.4572 73.8208 39.3163 75.8033 40.638C77.7858 41.9597 79.8014 44.0083 81.85 46.7838C83.8986 49.5593 85.1542 51.9053 85.6168 53.8217C85.6829 54.1522 85.8811 54.6808 86.2116 55.4078C86.4759 55.9364 86.7072 56.6303 86.9055 57.4894C87.0376 58.2824 87.2028 58.9763 87.4011 59.5711C87.6654 60.1658 87.8637 61.124 87.9958 62.4457C88.128 63.8335 88.2932 64.8578 88.4915 65.5186C88.6897 66.2456 88.7888 67.2368 88.7888 68.4924C88.7888 69.6819 88.6897 70.6402 88.4915 71.3671C88.2932 72.094 88.128 73.2835 87.9958 74.9356C87.8637 76.6538 87.7645 77.6781 87.6985 78.0085C87.5663 78.339 87.368 79.1981 87.1037 80.5858C86.7733 82.1058 86.4759 83.1631 86.2116 83.7579C85.8151 84.8152 85.9142 85.8395 86.5089 86.8308C87.1037 87.7559 89.0201 90.0028 92.2583 93.5713C93.7782 95.2234 94.7034 96.5451 95.0338 97.5364C95.3642 98.4616 95.2651 99.5189 94.7364 100.708C94.2077 101.832 93.613 102.592 92.9521 102.988C92.3574 103.385 91.4983 103.583 90.3749 103.583C89.1854 103.583 87.9958 103.121 86.8063 102.195C85.6168 101.27 83.5352 99.1885 80.5614 95.9504C80.0327 95.3556 79.6362 95.0913 79.3719 95.1574C79.1736 95.1574 78.6119 95.5539 77.6867 96.3469C75.7703 97.999 74.5808 98.825 74.1182 98.825C73.9199 98.825 73.5234 99.0233 72.9287 99.4198C72.3339 99.7502 71.7722 99.9815 71.2435 100.114C70.7809 100.18 70.1531 100.378 69.3601 100.708C68.501 101.039 66.7498 101.204 64.1064 101.204C61.5292 101.138 59.7118 100.907 58.6545 100.51C52.2443 97.999 47.4532 93.4392 44.2812 86.8308C43.7525 85.7073 43.4882 85.0795 43.4882 84.9474C43.4882 84.7491 43.2899 84.1874 42.8934 83.2622C42.4969 82.271 42.2656 81.4449 42.1995 80.7841C42.1335 80.0571 41.9683 79.3963 41.7039 78.8015C41.3735 78.0085 41.2083 75.6956 41.2083 71.8627C41.2083 68.0298 41.3735 65.7499 41.7039 65.023C42.0343 64.3622 42.2326 63.3379 42.2987 61.9501C42.4308 60.4962 42.6621 59.3067 42.9926 58.3816C43.323 57.3903 43.5212 56.6634 43.5873 56.2008C43.8517 54.7469 44.9751 52.434 46.9576 49.2619C47.6845 48.1385 48.1141 47.4446 48.2462 47.1803C48.5106 46.7177 49.2705 45.8586 50.5261 44.603C51.7817 43.2813 52.6408 42.4883 53.1034 42.224C53.3017 42.0257 53.9625 41.5631 55.086 40.8362C56.0772 40.1093 56.6389 39.7458 56.7711 39.7458C56.9033 39.7458 57.2337 39.6137 57.7624 39.3493C58.2249 39.085 59.2493 38.7546 60.8353 38.3581ZM69.1619 48.9646C68.3028 48.502 67.5428 48.3037 66.882 48.3698C66.2211 48.3698 65.1638 48.6341 63.7099 49.1628C62.7187 49.4932 61.8265 49.7906 61.0335 50.055C59.5797 50.5175 57.8945 52.0705 55.9781 54.7139C54.1277 57.3573 53.0704 59.6702 52.806 61.6527C52.6739 62.644 52.5417 63.2387 52.4095 63.437C52.2113 63.7674 52.0791 64.8248 52.013 66.609C51.8809 68.3272 51.7487 69.715 51.6165 70.7723C51.0879 74.1426 51.7487 77.7772 53.5991 81.6762C55.5155 85.5091 58.0267 88.3177 61.1326 90.1019C62.5865 91.0271 64.2716 91.2914 66.1881 90.8949C68.1706 90.4984 69.9549 89.5402 71.5409 88.0203C72.2678 87.3594 72.5982 86.8308 72.5322 86.4343C72.4661 86.0378 71.9374 85.2778 70.9461 84.1544C70.021 83.2292 69.228 82.337 68.5671 81.478C67.9063 80.5528 67.4106 79.925 67.0802 79.5946C65.4942 77.8103 64.6021 76.026 64.4038 74.2417C64.2716 72.3914 64.8003 71.0036 65.9898 70.0784C67.2454 69.1533 68.9306 68.8889 71.0453 69.2854C71.5079 69.3515 72.3669 70.0124 73.6225 71.268C74.8781 72.4575 75.6712 73.3826 76.0016 74.0435C76.6624 75.2991 77.2241 75.7286 77.6867 75.3321C78.0171 74.9356 78.0832 72.6557 77.885 68.4924C77.7528 64.3291 77.4885 61.7188 77.092 60.6615C76.7615 59.8684 76.5963 59.3728 76.5963 59.1746C76.5963 58.7781 76.1007 57.5885 75.1094 55.606C73.5895 52.434 71.607 50.2202 69.1619 48.9646ZM122.733 64.5274C124.781 63.6022 126.565 63.7674 128.085 65.023C129.605 66.2125 130.365 68.129 130.365 70.7723C130.365 72.1601 130.464 73.647 130.663 75.233C130.861 76.819 130.96 78.1407 130.96 79.1981C130.96 80.2554 131.092 81.1806 131.357 81.9736C131.621 82.7666 131.819 83.7248 131.951 84.8482C132.083 85.9717 132.282 87.0621 132.546 88.1194C132.877 89.1768 133.108 90.135 133.24 90.9941C133.306 91.8532 133.504 92.6792 133.835 93.4722C134.231 94.5956 134.463 95.9504 134.529 97.5364C134.595 99.1224 134.463 100.246 134.132 100.907C133.537 102.096 132.48 102.889 130.96 103.286C129.506 103.748 128.251 103.616 127.193 102.889C125.673 101.898 124.748 100.808 124.418 99.618C124.219 98.9572 124.021 98.6268 123.823 98.6268C123.625 98.6268 123.129 98.9902 122.336 99.7172C121.477 100.444 120.519 101.105 119.461 101.7C118.404 102.294 117.578 102.592 116.983 102.592C116.455 102.592 115.728 102.691 114.802 102.889C113.877 103.087 112.126 102.988 109.549 102.592C107.302 102.261 105.121 101.072 103.006 99.0233C100.892 96.9086 99.5701 94.6948 99.0414 92.3818C98.8432 91.3906 98.6119 90.4324 98.3476 89.5072C98.0171 88.3177 97.8189 86.7977 97.7528 84.9474C97.6867 82.9648 97.5876 81.6432 97.4554 80.9823C97.3232 80.0571 97.2572 78.0085 97.2572 74.8365C97.2572 71.5984 97.3563 69.6489 97.5545 68.9881C98.0832 67.0716 99.3388 65.8821 101.321 65.4195C103.37 64.8908 105.154 65.3534 106.674 66.8073C107.137 67.2699 107.401 67.8316 107.467 68.4924C107.599 69.0872 107.698 71.0697 107.765 74.44C107.831 78.7355 107.996 81.3458 108.26 82.271C108.525 83.1961 108.723 84.4517 108.855 86.0378C109.053 88.0203 109.549 89.6063 110.342 90.7958C111.201 91.9853 112.291 92.5801 113.613 92.5801C114.208 92.5801 114.935 91.9523 115.794 90.6967C116.653 89.4411 117.148 88.2516 117.281 87.1281C117.413 86.4673 117.644 85.8725 117.975 85.3439C118.239 84.7491 118.437 83.1631 118.569 80.5858C118.701 78.0746 118.9 76.5547 119.164 76.026C119.494 75.4973 119.693 73.9113 119.759 71.268C119.825 68.0298 120.056 66.4108 120.453 66.4108C120.585 66.4108 120.75 66.2125 120.948 65.816C121.213 65.4195 121.807 64.99 122.733 64.5274ZM167.685 38.1598C168.213 37.9616 168.874 37.8955 169.667 37.9616C170.46 37.9616 170.989 38.0607 171.253 38.2589C171.584 38.5233 171.815 38.6554 171.947 38.6554C172.212 38.6554 172.608 39.0189 173.137 39.7458C173.665 40.4728 173.963 41.0345 174.029 41.431C174.095 41.9597 174.26 42.5875 174.524 43.3144C174.789 44.0413 174.921 53.4252 174.921 71.4662C174.987 89.4411 174.888 98.6929 174.624 99.2215C174.359 99.618 174.161 99.9815 174.029 100.312C173.698 100.907 172.872 101.468 171.551 101.997C170.295 102.526 169.039 102.79 167.784 102.79C167.057 102.79 166.198 102.889 165.207 103.087C164.281 103.352 161.968 103.484 158.268 103.484C154.633 103.55 152.386 103.484 151.527 103.286C150.932 103.087 149.974 102.856 148.653 102.592C147.265 102.195 145.447 101.369 143.201 100.114C141.02 98.792 139.929 97.8668 139.929 97.3381C139.929 97.2721 139.665 96.9416 139.136 96.3469C138.608 95.686 138.343 95.2565 138.343 95.0582C138.343 94.86 138.178 94.5626 137.848 94.1661C137.319 93.5053 136.923 91.9523 136.658 89.5072C136.46 86.996 136.493 84.9143 136.757 83.2622C136.89 82.6014 137.022 81.8084 137.154 80.8832C137.286 79.958 137.484 79.3302 137.749 78.9998C138.013 78.6033 138.244 78.1407 138.443 77.612C139.169 75.6295 140.888 73.647 143.597 71.6645C146.307 69.6159 149.049 68.3272 151.825 67.7985C152.882 67.6003 153.642 67.402 154.104 67.2038C154.633 67.0055 156.351 66.8734 159.259 66.8073C162.167 66.7412 163.72 66.6421 163.918 66.5099C164.182 66.3777 164.314 62.1483 164.314 53.8217C164.314 47.5438 164.348 43.843 164.414 42.7196C164.48 41.5962 164.678 40.8032 165.008 40.3406C165.669 39.2172 166.561 38.4902 167.685 38.1598ZM163.819 78.405C163.555 78.1407 163.257 78.0085 162.927 78.0085C162.596 77.9425 161.44 77.8764 159.457 77.8103C156.946 77.8103 155.492 77.8764 155.096 78.0085C152.32 78.7355 150.371 79.5946 149.247 80.5858C148.124 81.5771 147.463 82.9648 147.265 84.7491C146.934 88.0533 147.397 90.2011 148.653 91.1923C149.974 92.1175 153.113 92.5801 158.07 92.5801C158.532 92.5801 159.127 92.5801 159.854 92.5801C162.167 92.6462 163.488 92.481 163.819 92.0845C164.215 91.6879 164.414 90.3663 164.414 88.1194C164.414 87.3925 164.414 86.8308 164.414 86.4343C164.48 83.1961 164.48 81.1475 164.414 80.2884C164.348 79.4293 164.149 78.8015 163.819 78.405ZM208.148 38.1598C208.677 37.9616 209.338 37.8955 210.131 37.9616C210.924 37.9616 211.453 38.0607 211.717 38.2589C212.047 38.5233 212.279 38.6554 212.411 38.6554C212.675 38.6554 213.072 39.0189 213.6 39.7458C214.129 40.4728 214.426 41.0345 214.492 41.431C214.559 41.9597 214.724 42.5875 214.988 43.3144C215.252 44.0413 215.385 53.4252 215.385 71.4662C215.451 89.4411 215.352 98.6929 215.087 99.2215C214.823 99.618 214.625 99.9815 214.492 100.312C214.162 100.907 213.336 101.468 212.014 101.997C210.759 102.526 209.503 102.79 208.248 102.79C207.521 102.79 206.661 102.889 205.67 103.087C204.745 103.352 202.432 103.484 198.731 103.484C195.097 103.55 192.85 103.484 191.991 103.286C191.396 103.087 190.438 102.856 189.116 102.592C187.728 102.195 185.911 101.369 183.664 100.114C181.483 98.792 180.393 97.8668 180.393 97.3381C180.393 97.2721 180.129 96.9416 179.6 96.3469C179.071 95.686 178.807 95.2565 178.807 95.0582C178.807 94.86 178.642 94.5626 178.311 94.1661C177.783 93.5053 177.386 91.9523 177.122 89.5072C176.924 86.996 176.957 84.9143 177.221 83.2622C177.353 82.6014 177.485 81.8084 177.618 80.8832C177.75 79.958 177.948 79.3302 178.212 78.9998C178.477 78.6033 178.708 78.1407 178.906 77.612C179.633 75.6295 181.351 73.647 184.061 71.6645C186.77 69.6159 189.513 68.3272 192.288 67.7985C193.346 67.6003 194.105 67.402 194.568 67.2038C195.097 67.0055 196.815 66.8734 199.723 66.8073C202.63 66.7412 204.183 66.6421 204.382 66.5099C204.646 66.3777 204.778 62.1483 204.778 53.8217C204.778 47.5438 204.811 43.843 204.877 42.7196C204.943 41.5962 205.142 40.8032 205.472 40.3406C206.133 39.2172 207.025 38.4902 208.148 38.1598ZM204.282 78.405C204.018 78.1407 203.721 78.0085 203.39 78.0085C203.06 77.9425 201.903 77.8764 199.921 77.8103C197.41 77.8103 195.956 77.8764 195.559 78.0085C192.784 78.7355 190.834 79.5946 189.711 80.5858C188.587 81.5771 187.927 82.9648 187.728 84.7491C187.398 88.0533 187.861 90.2011 189.116 91.1923C190.438 92.1175 193.577 92.5801 198.533 92.5801C198.996 92.5801 199.59 92.5801 200.317 92.5801C202.63 92.6462 203.952 92.481 204.282 92.0845C204.679 91.6879 204.877 90.3663 204.877 88.1194C204.877 87.3925 204.877 86.8308 204.877 86.4343C204.943 83.1961 204.943 81.1475 204.877 80.2884C204.811 79.4293 204.613 78.8015 204.282 78.405ZM221.749 63.8335C223.203 63.6352 224.359 63.7013 225.218 64.0317C225.615 64.23 226.176 64.7587 226.903 65.6178C227.696 66.4769 228.159 67.1377 228.291 67.6003C228.423 68.129 228.555 68.4924 228.688 68.6907C228.754 68.8228 228.985 69.2854 229.382 70.0784C229.646 70.6732 229.91 71.1688 230.175 71.5653C230.439 71.8958 230.637 72.2923 230.769 72.7548C230.901 73.2835 231.067 73.6139 231.265 73.7461C231.463 73.8783 231.661 74.2748 231.86 74.9356C232.058 75.6626 232.289 76.1582 232.554 76.4225C232.884 76.6869 233.082 77.0173 233.148 77.4138C233.28 77.7442 233.446 78.0085 233.644 78.2068C234.173 78.7355 234.767 79.7598 235.428 81.2797C235.693 81.8745 235.99 82.337 236.32 82.6675C236.585 82.9979 236.981 83.5596 237.51 84.3526C238.105 85.3439 238.633 85.7734 239.096 85.6413C239.558 85.5091 240.153 84.7161 240.88 83.2622C241.541 81.9405 241.971 81.1145 242.169 80.7841C242.433 80.5197 242.631 80.1563 242.764 79.6937C242.962 79.165 243.127 78.8676 243.259 78.8015C243.457 78.6033 243.755 78.1737 244.151 77.5129C245.01 75.8608 245.605 74.9026 245.936 74.6382C246.134 74.3078 246.266 73.9774 246.332 73.647C246.464 73.2505 246.596 72.9531 246.729 72.7548C246.927 72.5566 247.489 71.6645 248.414 70.0784C249.405 68.4263 249.934 67.5012 250 67.3029C250.33 66.4438 251.057 65.5186 252.181 64.5274C252.907 63.9326 253.965 63.6683 255.353 63.7344C256.806 63.7344 257.897 64.0317 258.624 64.6265C259.945 65.7499 260.639 67.1707 260.705 68.8889C260.838 70.6071 260.309 72.3253 259.119 74.0435C258.789 74.5061 258.624 74.8035 258.624 74.9356C258.624 75.1339 258.326 75.6626 257.732 76.5216C257.203 77.3807 256.773 78.1737 256.443 78.9007C256.179 79.5615 255.914 79.958 255.65 80.0902C255.386 80.2224 255.187 80.5197 255.055 80.9823C254.923 81.511 254.659 82.0066 254.262 82.4692C253.998 82.8657 253.866 83.1301 253.866 83.2622C253.866 83.3944 253.601 83.8239 253.073 84.5509C252.147 85.9386 251.586 86.9299 251.388 87.5246C251.255 87.9212 251.024 88.3837 250.694 88.9124C250.297 89.375 250.099 89.7054 250.099 89.9037C250.099 90.0358 249.901 90.3663 249.504 90.8949C249.174 91.3575 249.008 91.6879 249.008 91.8862C249.008 92.0184 248.843 92.3157 248.513 92.7783C248.182 93.2409 247.951 93.7035 247.819 94.1661C247.687 94.4965 247.456 94.9261 247.125 95.4547C246.861 95.9173 246.662 96.3138 246.53 96.6443C246.464 96.9086 246.299 97.239 246.035 97.6355C245.704 97.9659 245.407 98.4616 245.143 99.1224C244.878 99.7172 244.68 100.048 244.548 100.114C244.416 100.18 244.283 100.477 244.151 101.006C244.019 101.468 243.821 101.865 243.557 102.195C243.292 102.592 243.094 102.988 242.962 103.385C242.83 103.847 242.631 104.244 242.367 104.574C242.103 104.971 241.805 105.466 241.475 106.061C240.682 107.515 239.129 110.39 236.816 114.685C236.684 114.883 236.453 115.247 236.122 115.776C235.858 116.37 235.659 116.767 235.527 116.965C234.8 118.287 234.404 119.047 234.338 119.245C233.875 120.038 233.545 120.666 233.347 121.128C233.016 121.723 232.752 122.153 232.554 122.417C232.289 122.681 232.091 123.078 231.959 123.607C231.562 124.796 230.736 125.886 229.481 126.878C228.291 127.869 227.135 128.365 226.011 128.365C224.557 128.365 223.236 127.671 222.046 126.283C220.857 124.961 220.361 123.507 220.559 121.921C220.625 121.393 220.923 120.501 221.451 119.245C222.046 118.056 222.476 117.329 222.74 117.064C222.938 116.932 223.104 116.602 223.236 116.073C223.368 115.478 224.293 113.76 226.011 110.918C226.606 109.795 226.903 109.134 226.903 108.936C226.903 108.738 227.102 108.374 227.498 107.846C227.895 107.317 228.093 106.986 228.093 106.854C228.093 106.722 228.225 106.491 228.489 106.16C228.688 105.896 229.018 105.367 229.481 104.574C229.943 103.583 230.34 102.823 230.67 102.294C231.926 100.048 232.554 98.7259 232.554 98.3294C232.554 98.1311 232.025 97.1068 230.968 95.2565C229.91 93.4061 229.249 92.2827 228.985 91.8862C228.655 91.5558 227.895 90.3332 226.705 88.2185C226.573 87.9542 226.044 87.0621 225.119 85.5421C224.326 84.2204 223.797 83.2953 223.533 82.7666C223.269 82.2379 223.004 81.7753 222.74 81.3788C222.542 81.0484 222.178 80.3545 221.65 79.2972C220.923 77.9094 220.493 77.0834 220.361 76.819C218.841 73.8452 217.916 71.7305 217.585 70.4749C217.321 69.1533 217.519 67.8646 218.18 66.609C218.643 65.6838 219.105 65.023 219.568 64.6265C220.097 64.23 220.824 63.9657 221.749 63.8335ZM319.273 39.9441C319.801 39.7458 320.76 39.6798 322.147 39.7458C323.535 39.8119 324.493 39.911 325.022 40.0432C326.476 40.638 327.533 41.5962 328.194 42.9179C328.458 43.4465 328.591 45.8256 328.591 50.055C328.657 54.2183 328.591 56.8286 328.392 57.8859C328.26 58.5468 328.128 59.9676 327.996 62.1484C327.864 64.3291 327.731 65.8491 327.599 66.7082C327.335 68.2942 326.641 69.5167 325.518 70.3758C324.46 71.1688 323.37 71.4993 322.246 71.3671C321.189 71.1688 320.231 70.541 319.372 69.4837C318.513 68.4263 318.116 67.0716 318.182 65.4195C318.182 64.2961 318.116 63.6683 317.984 63.5361C317.918 63.47 316.53 63.5031 313.821 63.6352C311.177 63.7013 309.261 63.8005 308.071 63.9326C301.331 64.7256 297.961 63.1727 297.961 59.2737C297.961 55.9695 300.571 54.2843 305.792 54.2183C307.047 54.2183 308.071 54.1522 308.864 54.02C309.79 53.9539 311.442 53.8548 313.821 53.7226C316.068 53.5905 317.422 53.4252 317.885 53.227C318.414 53.0287 318.711 52.5662 318.777 51.8392C318.909 50.848 318.843 50.2863 318.579 50.1541C318.381 49.9558 317.621 49.9228 316.299 50.055C315.043 50.121 313.656 50.1541 312.136 50.1541C310.814 50.1541 308.6 50.2202 305.494 50.3523C302.719 50.5506 301 50.5506 300.34 50.3523C298.423 49.6915 297.399 48.3368 297.267 46.2882C297.134 44.2396 297.994 42.7527 299.844 41.8275C300.901 41.2327 302.95 40.9023 305.99 40.8362C308.171 40.7701 309.657 40.671 310.45 40.5388C311.177 40.4067 312.763 40.3075 315.209 40.2415C317.588 40.1093 318.942 40.0102 319.273 39.9441ZM346.235 40.638C347.16 40.3076 348.184 40.3736 349.308 40.8362C350.431 41.2327 351.323 41.9266 351.984 42.9179C352.249 43.3144 352.381 44.3717 352.381 46.0899C352.447 47.742 352.447 53.4913 352.381 63.3379C352.381 76.6208 352.315 84.4187 352.183 86.7316C352.116 88.9124 352.017 91.9523 351.885 95.8512C351.819 99.552 351.621 101.7 351.29 102.294C350.431 103.947 349.11 104.839 347.325 104.971C345.607 105.103 344.186 104.409 343.063 102.889C342.204 101.7 341.873 99.9154 342.072 97.5364C342.072 97.4042 342.072 97.2721 342.072 97.1399C342.138 96.2147 341.94 95.686 341.477 95.5539C341.08 95.3556 339.561 95.2234 336.917 95.1574C336.388 95.1574 335.959 95.1243 335.628 95.0582C331.267 94.9922 328.161 94.9591 326.311 94.9591C323.073 94.9591 320.793 94.5626 319.471 93.7696C318.215 92.9766 317.588 91.6219 317.588 89.7054C317.588 87.9872 318.215 86.6986 319.471 85.8395C320.793 84.9804 322.544 84.7161 324.725 85.0465C326.178 85.2447 329.45 85.3439 334.538 85.3439C339.627 85.2778 342.204 85.1126 342.27 84.8482C342.468 84.5839 342.633 81.1806 342.766 74.6382C342.898 68.0298 342.931 61.9831 342.865 56.4982C342.931 52.9296 342.898 50.2202 342.766 48.3698C342.699 46.4534 342.832 44.9665 343.162 43.9091C343.559 42.7857 343.922 42.0588 344.252 41.7284C344.649 41.3979 345.31 41.0345 346.235 40.638ZM328.095 72.2592C331.201 71.7966 333.679 71.9949 335.529 72.854C337.38 73.7131 338.305 75.1008 338.305 77.0173C338.305 77.6781 338.239 78.0416 338.107 78.1077C337.974 78.1737 337.875 78.405 337.809 78.8015C337.479 79.9911 336.686 80.7841 335.43 81.1806C334.241 81.5771 331.564 81.8414 327.401 81.9736C320.264 82.1718 316.53 82.3701 316.2 82.5683C316.068 82.6344 316.002 83.3944 316.002 84.8482C316.002 86.0378 315.935 87.6899 315.803 89.8046C315.605 92.5801 315.473 94.5296 315.407 95.653C315.275 97.4373 315.109 98.6929 314.911 99.4198C314.713 100.147 314.283 100.841 313.622 101.501C312.235 102.889 310.715 103.319 309.063 102.79C307.411 102.261 306.32 101.006 305.792 99.0233C305.395 97.6355 305.329 95.686 305.593 93.1748C306.254 87.7559 306.419 84.5839 306.089 83.6587C305.957 83.3283 305.725 83.1631 305.395 83.1631C305.131 83.097 303.809 83.1631 301.43 83.3614C299.183 83.4935 297.564 83.4605 296.573 83.2622C295.648 83.064 294.789 82.6014 293.996 81.8745C293.004 81.0154 292.509 79.8589 292.509 78.405C292.509 76.8851 293.004 75.6956 293.996 74.8365C294.59 74.3078 295.218 73.9774 295.879 73.8452C296.606 73.647 298.159 73.5148 300.538 73.4487C307.08 73.1183 311.31 72.854 313.226 72.6557C314.349 72.5236 316.96 72.4575 321.057 72.4575C325.154 72.4575 327.5 72.3914 328.095 72.2592ZM409.165 41.8275C410.42 41.2988 411.676 41.3979 412.931 42.1249C414.187 42.7857 415.046 43.843 415.509 45.2969C415.707 46.0899 415.839 50.8149 415.905 59.4719C415.971 68.0629 415.905 74.8365 415.707 79.7928C415.641 80.718 415.542 82.4362 415.41 84.9474C415.343 87.4586 415.31 89.1768 415.31 90.1019C415.178 93.8687 415.046 96.0165 414.914 96.5451C414.782 97.1399 414.716 97.6686 414.716 98.1311C414.716 100.312 413.724 101.832 411.742 102.691C409.825 103.55 408.14 103.187 406.686 101.601C405.893 100.741 405.431 99.9485 405.299 99.2215C405.233 98.4285 405.266 95.7852 405.398 91.2914C405.794 79.0659 405.993 67.7985 405.993 57.4894C405.993 50.3523 406.125 46.123 406.389 44.8013C406.653 43.4796 407.579 42.4883 409.165 41.8275ZM382.995 49.9558C387.225 49.8237 389.835 49.8567 390.826 50.055C391.818 50.1871 392.776 50.7158 393.701 51.641C394.824 52.7644 395.221 54.053 394.89 55.5069C394.626 56.9607 393.701 58.1172 392.115 58.9763C391.652 59.2406 389.835 59.4059 386.663 59.4719C379.856 59.7363 375.825 60.0337 374.57 60.3641C374.239 60.4962 374.041 60.7275 373.975 61.058C373.975 61.3223 373.942 62.3466 373.876 64.1309C373.744 66.9064 373.611 68.9881 373.479 70.3758C373.215 74.0104 373.083 76.3895 373.083 77.5129C373.149 78.5703 373.314 79.165 373.578 79.2972C373.975 79.4293 377.279 79.5285 383.491 79.5946C388.646 79.5946 391.685 79.6606 392.611 79.7928C393.602 79.925 394.494 80.3215 395.287 80.9823C396.41 82.0397 396.774 83.3944 396.377 85.0465C395.981 86.6986 395.023 87.8881 393.503 88.615C391.52 89.5402 383.987 89.7054 370.902 89.1107C368.787 89.0446 367.234 88.7472 366.243 88.2185C365.318 87.6899 364.525 86.7647 363.864 85.443C363.6 84.8482 363.434 83.5266 363.368 81.478C363.302 79.3633 363.401 77.3807 363.666 75.5304C363.798 74.5391 363.897 71.268 363.963 65.7169C364.095 60.6945 364.26 57.5885 364.459 56.399C364.657 55.1434 365.252 54.02 366.243 53.0287C367.829 51.3766 370.373 50.5506 373.876 50.5506C374.801 50.5506 375.693 50.4845 376.552 50.3523C377.477 50.2202 379.625 50.088 382.995 49.9558Z" fill="black"/>
<rect x="4" y="4" width="459" height="144" rx="72" stroke="black" stroke-width="8"/>
</svg>
