<svg width="1920" height="617" viewBox="0 0 1920 617" fill="none" xmlns="http://www.w3.org/2000/svg"><g clip-path="url(#a)"><path fill="#F4EDE7" d="M0 0h1920v617H0z"/><g opacity=".64" clip-path="url(#b)"><mask id="c" fill="#fff"><path d="M1712.47 702.767c98.58-61.575 44.79-770.456-738.208-547.487-17.403 4.952-27.504 23.114-22.241 40.416 39.335 129.318 223.429 610.58 760.449 507.031"/></mask><path d="M1712.47 702.767c98.58-61.575 44.79-770.456-738.208-547.487-17.403 4.952-27.504 23.114-22.241 40.416 39.335 129.318 223.429 610.58 760.449 507.031" fill="#ACB394"/><path d="m974.262 155.28 1.095 3.847zm-22.241 40.416 3.827-1.164zM1714.59 706.16c13.67-8.543 23.95-27.652 30.45-52.739 6.56-25.319 9.5-57.606 7.78-93.721-3.44-72.234-25.57-160.336-75.48-239.513-49.95-79.239-127.73-149.52-242.33-185.899-114.56-36.364-265.56-38.749-461.844 17.145l2.191 7.694c195.213-55.59 344.563-52.979 457.233-17.214 112.62 35.751 188.94 104.732 237.99 182.54 49.08 77.869 70.86 164.597 74.25 235.628 1.69 35.517-1.22 66.971-7.54 91.334-6.37 24.595-15.97 41.109-26.94 47.959zM973.167 151.433c-19.516 5.553-30.898 25.946-24.973 45.427l7.654-2.328c-4.6-15.122 4.218-31.054 19.509-35.405zm-24.973 45.427c19.74 64.898 75.826 218.24 194.526 342.44 118.9 124.399 300.51 219.417 570.51 167.355l-1.51-7.855c-267.02 51.486-445.97-42.353-563.21-165.027-117.44-122.873-173.067-274.82-192.662-339.241z" fill="#000" fill-opacity=".5" mask="url(#c)"/><path d="M1718.93 692.838s-383.4-441.889-657.31-491.653" stroke="#6A7464" stroke-width="12.161" stroke-miterlimit="10" stroke-linecap="round"/><path d="M1253.33 139.15s127.7 127.221 95.44 209.608m56.54 52.117s-106.41 50.286-193.67 22.03m364.63 128.972s-121.72 77.055-226.43 58.958m197.88-367.481s24.38 178.596-51.22 224.53" stroke="#6A7464" stroke-width="12.161" stroke-miterlimit="10" stroke-linecap="round"/></g><path d="M335.764 365.96h1.71v13.723h-1.71zm1.174 5.667h3.297v1.421h-3.297zm-11.064 11.167h12.444v1.401h-12.444zm0-4.512h1.71v5.068h-1.71zm2.348-11.003c2.782 0 4.863 1.916 4.863 4.595 0 2.699-2.081 4.595-4.863 4.595-2.781 0-4.862-1.896-4.862-4.595 0-2.679 2.081-4.595 4.862-4.595m0 1.504c-1.813 0-3.193 1.278-3.193 3.091 0 1.834 1.38 3.09 3.193 3.09s3.194-1.256 3.194-3.09c0-1.813-1.38-3.091-3.194-3.091m14.875-1.689h1.69v8.035h-1.69zm0 7.623h1.401c3.276 0 5.543-.103 8.118-.639l.227 1.381c-2.679.556-4.986.68-8.345.68h-1.401zm12.486-8.736h1.71v11.415h-1.71zm-5.213 2.184h5.687v1.339h-5.687zm0 3.276h5.687v1.36h-5.687zm.804 6.12c3.832 0 6.202 1.298 6.202 3.523s-2.37 3.503-6.202 3.503c-3.853 0-6.223-1.278-6.223-3.503s2.37-3.523 6.223-3.523m0 1.359c-2.802 0-4.513.804-4.513 2.164s1.711 2.143 4.513 2.143 4.512-.783 4.512-2.143-1.71-2.164-4.512-2.164m22.374-12.939h1.71v18.626h-1.71zm1.298 7.644h3.462v1.442h-3.462zm-14.011-4.677h10.982v1.401h-10.982zm5.564 2.946c2.637 0 4.532 1.772 4.532 4.286s-1.895 4.286-4.532 4.286c-2.617 0-4.533-1.772-4.533-4.286s1.916-4.286 4.533-4.286m0 1.422c-1.69 0-2.906 1.175-2.906 2.864 0 1.669 1.216 2.864 2.906 2.864 1.689 0 2.905-1.195 2.905-2.864 0-1.689-1.216-2.864-2.905-2.864m-.886-7.108h1.71v3.379h-1.71zm21.715 6.428h3.564v1.422h-3.564zm-3.482-4.904h1.339v3.544c0 3.894-1.628 7.665-4.348 9.334l-1.071-1.298c2.555-1.504 4.08-4.842 4.08-8.036zm.329 0h1.319v3.482c0 2.988 1.401 6.161 3.853 7.645l-.989 1.339c-2.679-1.648-4.183-5.357-4.183-8.984zm9.993-1.751h1.649v18.626h-1.649zm-3.77.392h1.607v17.307h-1.607zm12.67 9.189h1.689v5.584h-1.689zm6.881 0h1.711v5.584h-1.711zm-11.002 5.254h16.875v1.422h-16.875zm8.406-13.661c3.936 0 6.758 1.875 6.758 4.801 0 2.905-2.822 4.78-6.758 4.78-3.956 0-6.778-1.875-6.778-4.78 0-2.926 2.822-4.801 6.778-4.801m0 1.36c-2.987 0-5.13 1.36-5.13 3.441 0 2.061 2.143 3.42 5.13 3.42s5.11-1.359 5.11-3.42c0-2.081-2.122-3.441-5.11-3.441m13.381-.5-.146 10.771h-1.698l-.146-10.771zm-.995 15.102q-.542 0-.929-.388a1.26 1.26 0 0 1-.388-.929q0-.542.388-.929.387-.388.929-.388t.929.388.388.929q0 .359-.183.659-.176.3-.476.482a1.24 1.24 0 0 1-.658.176m23.311-17.157h1.689v18.668h-1.689zm-4.018 6.8h4.512v1.401h-4.512zm-4.883-4.121h1.38v2.782c0 4.017-2.307 7.994-5.254 9.519l-1.009-1.36c2.678-1.319 4.883-4.842 4.883-8.159zm.35 0h1.36v2.782c0 3.111 2.163 6.51 4.862 7.788l-1.009 1.339c-2.947-1.463-5.213-5.295-5.213-9.127zm-4.554-.762h10.138v1.421h-10.138zm20.706 3.688h12.651v1.401h-12.651zm-2.287 3.894h16.895v1.401h-16.895zm2.287-8.798h1.689v5.604h-1.689zm-.124 16.092h12.878v1.401h-12.878zm0-4.039h1.69v4.41h-1.69zm24.008-11.229h8.262v1.401h-8.262zm7.396 0h1.669v.824c0 1.381 0 3.771-.7 7.253l-1.71.021c.741-3.462.741-5.873.741-7.274zm.227 3.503v1.257l-7.747.638-.268-1.462zm-4.162 5.007h1.71v7.623h-1.71zm8.736-10.014h1.71v18.647h-1.71zm-13.537 10.817-.247-1.422c3.585 0 8.283-.041 12.363-.597l.123 1.236c-4.203.701-8.736.763-12.239.783m9.334 1.422h4.657v1.36h-4.657zm23.075-12.239h1.71v18.667h-1.71zm-12.321 12.589h1.504c3.688 0 6.078-.124 8.839-.639l.185 1.443c-2.843.535-5.274.638-9.024.638h-1.504zm0-10.817h8.798v1.422h-7.109v9.931h-1.689zm20.885 13.198-.117.791q-.125.834-.381 1.785a34 34 0 0 1-.519 1.792q-.271.842-.447 1.339h-1.317q.096-.468.249-1.236t.307-1.72a30 30 0 0 0 .264-1.931l.087-.82zm9.268-12.25h15.123v1.401h-15.123zm-.824 12.321h16.874v1.422h-16.874zm7.561-2.946h1.69v3.502h-1.69zm.824-6.717c3.771 0 6.099 1.298 6.099 3.544s-2.328 3.543-6.099 3.543c-3.75 0-6.078-1.298-6.078-3.543s2.328-3.544 6.078-3.544m0 1.339c-2.699 0-4.368.824-4.368 2.205 0 1.38 1.669 2.184 4.368 2.184 2.72 0 4.368-.804 4.368-2.184s-1.648-2.205-4.368-2.205m-.824-6.408h1.69v3.276h-1.69zm24.95-.309h1.71v18.626h-1.71zm-5.46 1.999h1.69c0 5.398-2.432 10.116-8.654 13.166l-.907-1.381c5.378-2.596 7.871-6.552 7.871-11.497zm-7.026 0h7.768v1.401h-7.768zm31.42-1.978h1.73v10.57h-1.73zm-10.302 11.641h12.032v6.717h-12.032zm10.343 1.36h-8.674v3.976h8.674zm-8.736-12.301h1.421v1.813c0 3.462-2.142 6.429-5.295 7.603l-.845-1.36c2.803-1.009 4.719-3.523 4.719-6.243zm.309 0h1.401v1.813c0 2.638 1.937 4.966 4.698 5.893l-.845 1.339c-3.111-1.071-5.254-3.853-5.254-7.232zm32.331-.721h1.71v9.499h-1.71zm.969 4.183h3.502v1.421h-3.502zm-12.94-2.967h8.551v7.603h-8.551zm6.882 1.38H587.6v4.863h5.213zm-5.707 14.135h.886c1.112 0 2.905-.103 4.491-.639l.289 1.38c-1.793.577-3.503.66-4.78.66h-.886zm0-5.522h1.669v5.892h-1.669zm4.986.185h9.354v1.278h-9.354zm4.698 1.957c2.019 0 3.44 1.031 3.44 2.617 0 1.628-1.421 2.638-3.44 2.638-2.04 0-3.462-1.01-3.462-2.638 0-1.586 1.422-2.617 3.462-2.617m0 1.216c-1.154 0-1.937.556-1.937 1.401 0 .866.783 1.422 1.937 1.422 1.112 0 1.916-.556 1.916-1.422 0-.845-.804-1.401-1.916-1.401m-.845-4.801h1.669v2.535h-1.669zm8.157.021h16.834v1.401h-16.834zm2.184 7.026h12.796v1.401h-12.796zm0-3.997h1.711v4.43h-1.711zm6.243-12.198c3.977 0 6.553 1.401 6.553 3.729 0 2.308-2.576 3.709-6.553 3.709-3.997 0-6.552-1.401-6.552-3.709 0-2.328 2.555-3.729 6.552-3.729m0 1.401c-2.925 0-4.8.866-4.8 2.328 0 1.463 1.875 2.329 4.8 2.329 2.926 0 4.801-.866 4.801-2.329 0-1.462-1.875-2.328-4.801-2.328m17.744-.515h8.262v1.401h-8.262zm7.397 0h1.669v.824c0 1.381 0 3.771-.701 7.253l-1.71.021c.742-3.462.742-5.873.742-7.274zm.227 3.503v1.257l-7.748.638-.267-1.462zm-4.162 5.007h1.71v7.623h-1.71zm8.736-10.014h1.71v18.647h-1.71zm-13.537 10.817-.247-1.422c3.585 0 8.282-.041 12.362-.597l.124 1.236c-4.204.701-8.736.763-12.239.783m9.333 1.422h4.657v1.36h-4.657zm17.471-10.302h1.669c0 5.377-1.813 10.322-8.489 13.64l-.927-1.319c5.893-2.905 7.747-7.067 7.747-12.136zm-6.737 0h7.747v1.38h-7.747zm6.469 4.615v1.319l-7.129.7-.268-1.524zm4.945-6.573h1.731v18.647h-1.731zm1.257 7.562h3.441v1.422h-3.441zm12.526-3.049h3.626v1.421h-3.626zm0 5.666h3.626v1.422h-3.626zm6.758-10.158h1.648v18.626h-1.648zm-3.647.392h1.607v17.307h-1.607zm-6.346 1.153c2.411 0 3.977 2.493 3.977 6.491s-1.566 6.49-3.977 6.49-3.956-2.493-3.956-6.49 1.545-6.491 3.956-6.491m0 1.587c-1.463 0-2.411 1.895-2.411 4.904s.948 4.903 2.411 4.903c1.483 0 2.411-1.895 2.411-4.903 0-3.009-.928-4.904-2.411-4.904m18.892 6.449h1.69v5.584h-1.69zm6.882 0h1.71v5.584h-1.71zm-11.003 5.254h16.875v1.422h-16.875zm8.407-13.661c3.935 0 6.758 1.875 6.758 4.801 0 2.905-2.823 4.78-6.758 4.78-3.956 0-6.779-1.875-6.779-4.78 0-2.926 2.823-4.801 6.779-4.801m0 1.36c-2.988 0-5.13 1.36-5.13 3.441 0 2.061 2.142 3.42 5.13 3.42s5.11-1.359 5.11-3.42c0-2.081-2.122-3.441-5.11-3.441m12.356 14.602q-.541 0-.929-.388a1.27 1.27 0 0 1-.388-.929q0-.542.388-.929.388-.388.929-.388t.93.388q.387.387.387.929 0 .359-.183.659-.175.3-.475.482a1.25 1.25 0 0 1-.659.176m-378.872 16.522h1.36v3.029c0 3.873-2.37 7.871-5.275 9.354l-.989-1.36c2.658-1.298 4.904-4.842 4.904-7.994zm.309 0h1.36v3.029c0 2.946 2.101 6.263 4.801 7.541l-.969 1.36c-2.946-1.463-5.192-5.213-5.192-8.901zm-4.554-.762h10.035v1.442H323.38zm12.239-1.896h1.731v18.626h-1.731zm1.319 7.521h3.461v1.442h-3.461zm13.659-4.616h5.604v1.401h-5.604zm0 4.471h5.604v1.401h-5.604zm4.986-7.355h1.71v13.763h-1.71zm-10.178 16.792h12.403v1.401h-12.403zm0-4.451h1.71v5.069h-1.71zm1.648-11.167c2.74 0 4.801 1.916 4.801 4.657s-2.061 4.656-4.801 4.656-4.801-1.916-4.801-4.656c0-2.741 2.061-4.657 4.801-4.657m0 1.504c-1.813 0-3.152 1.319-3.152 3.153 0 1.854 1.339 3.173 3.152 3.173s3.173-1.319 3.173-3.173c0-1.834-1.36-3.153-3.173-3.153m22.292-2.39c4.1 0 6.552 1.154 6.552 3.235s-2.452 3.235-6.552 3.235c-4.121 0-6.552-1.154-6.552-3.235s2.431-3.235 6.552-3.235m0 1.298c-3.049 0-4.801.701-4.801 1.937s1.752 1.937 4.801 1.937c3.029 0 4.78-.701 4.78-1.937s-1.751-1.937-4.78-1.937m-8.427 6.408h16.833v1.38h-16.833zm2.04 2.967h12.651v4.203h-10.921v2.267h-1.689v-3.503h10.92v-1.648h-10.961zm.041 6.099h13.166v1.339h-13.166zm27.242-15.474h1.401v3.338c0 4.121-2.225 8.139-5.172 9.705l-1.05-1.36c2.699-1.36 4.821-4.945 4.821-8.345zm.309 0h1.381v3.338c0 3.276 2.081 6.676 4.718 7.994l-1.051 1.36c-2.884-1.545-5.048-5.357-5.048-9.354zm7.727-1.607h1.73v18.626h-1.73zm1.318 7.541h3.462v1.442h-3.462zm17.78-7.541h1.71v11.25h-1.71zm1.195 4.657h3.276v1.421h-3.276zm-13.125 4.12h1.463c3.379 0 5.79-.103 8.695-.618l.144 1.422c-2.946.494-5.398.618-8.839.618h-1.463zm-.041-7.623h8.386v5.068h-6.676v3.462h-1.669v-4.801h6.655v-2.328h-6.696zm7.727 10.673c3.811 0 6.119 1.236 6.119 3.379 0 2.163-2.308 3.4-6.119 3.4-3.792 0-6.12-1.237-6.12-3.4 0-2.143 2.328-3.379 6.12-3.379m0 1.339c-2.782 0-4.451.742-4.451 2.04 0 1.319 1.669 2.06 4.451 2.06s4.471-.741 4.471-2.06c0-1.298-1.69-2.04-4.471-2.04m23.075-13.166h1.71v18.626h-1.71zm1.298 7.644h3.461v1.442h-3.461zm-14.011-4.677h10.982v1.401h-10.982zm5.563 2.946c2.637 0 4.533 1.772 4.533 4.286s-1.896 4.286-4.533 4.286c-2.617 0-4.533-1.772-4.533-4.286s1.916-4.286 4.533-4.286m0 1.422c-1.69 0-2.905 1.175-2.905 2.864 0 1.669 1.215 2.864 2.905 2.864s2.905-1.195 2.905-2.864c0-1.689-1.216-2.864-2.905-2.864m-.886-7.108h1.71v3.379h-1.71zm16.152 1.627h11.991v1.422h-11.991zm-1.772 12.754h16.834v1.422H442.55zm6.531-6.655h1.711v7.356h-1.711zm6.594-6.099h1.689v1.855c0 2.307 0 4.862-.68 8.633l-1.71-.227c.701-3.564.701-6.181.701-8.406zm15.518-.103h1.339v3.544c0 3.894-1.648 7.665-4.368 9.313l-1.092-1.277c2.576-1.504 4.121-4.842 4.121-8.036zm.309 0h1.34v3.441c0 3.07 1.442 6.223 3.914 7.603l-1.03 1.339c-2.72-1.565-4.224-5.192-4.224-8.942zm9.973-1.751h1.648v18.626h-1.648zm-2.947 7.479h3.565v1.422h-3.565zm-1.154-7.087h1.628v17.307h-1.628zm8.879 14.525h16.875v1.422h-16.875zm7.541-3.997h1.71v4.595h-1.71zm-5.501-9.539h12.754v5.645h-11.003v3.729h-1.689v-5.109h11.002v-2.885h-11.064zm.062 8.653h13.125v1.401h-13.125zm16.832-.597h16.895v1.401h-16.895zm7.706.886h1.73v4.285h-1.73zm-5.563 6.469h12.877v1.422H507.33zm0-4.017h1.71v4.409h-1.71zm6.284-12.322c3.935 0 6.531 1.443 6.531 3.75s-2.596 3.75-6.531 3.75c-3.956 0-6.532-1.442-6.532-3.75s2.576-3.75 6.532-3.75m0 1.401c-2.844 0-4.719.907-4.719 2.349 0 1.463 1.875 2.349 4.719 2.349 2.843 0 4.718-.886 4.718-2.349 0-1.442-1.875-2.349-4.718-2.349m29.879-1.833h1.731v13.763h-1.731zm-10.24 16.792h12.527v1.401h-12.527zm0-4.327h1.69v5.069h-1.69zm1.751-8.921h1.401v.782c0 3.338-2.122 6.099-5.233 7.171l-.845-1.34c2.761-.906 4.677-3.255 4.677-5.831zm.289 0h1.401v.782c0 2.432 1.937 4.636 4.718 5.502l-.824 1.339c-3.152-1.01-5.295-3.647-5.295-6.841zm-4.533-1.072h10.137v1.381H530.76zm4.244-2.411h1.69v3.07h-1.69zm16.008 1.134h11.641v1.38h-11.641zm-2.102 7.994h16.834v1.401H548.91zm7.521.927h1.71v8.51h-1.71zm5.419-8.921h1.669v1.607c0 1.937 0 4.121-.701 7.273l-1.689-.227c.721-3.008.721-5.171.721-7.046zm6.015 6.552h16.833v1.401h-16.833zm2.225-2.885h12.61v1.381h-12.61zm0-4.285h12.404v1.401h-10.715v3.997h-1.689zm-.206 10.178h12.651v4.389h-10.92v2.348h-1.69v-3.626h10.92v-1.772h-10.961zm.041 6.284h13.166v1.36h-13.166zm25.3-16.751c4.1 0 6.552 1.154 6.552 3.235s-2.452 3.235-6.552 3.235c-4.121 0-6.552-1.154-6.552-3.235s2.431-3.235 6.552-3.235m0 1.298c-3.049 0-4.801.701-4.801 1.937s1.752 1.937 4.801 1.937c3.029 0 4.78-.701 4.78-1.937s-1.751-1.937-4.78-1.937m-8.427 6.408h16.834v1.38h-16.834zm2.04 2.967h12.651v4.203h-10.92v2.267h-1.69v-3.503h10.92v-1.648h-10.961zm.041 6.099h13.166v1.339h-13.166zm27.242-15.474h1.401v3.338c0 4.121-2.225 8.139-5.171 9.705l-1.051-1.36c2.699-1.36 4.821-4.945 4.821-8.345zm.309 0h1.381v3.338c0 3.276 2.081 6.676 4.718 7.994l-1.051 1.36c-2.884-1.545-5.048-5.357-5.048-9.354zm7.727-1.607h1.731v18.626h-1.731zm1.319 7.541h3.461v1.442h-3.461zm10.094 2.246h1.731v7.768h-1.731zm8.654-9.787h1.689v18.626h-1.689zm-13.599 10.323-.227-1.443c3.771-.02 8.386-.082 12.486-.515l.145 1.278c-4.183.577-8.716.659-12.404.68m1.401-8.901h7.706v1.421h-7.706zm7.047 0h1.689v.762c0 1.298 0 3.626-.618 6.944l-1.689-.145c.618-3.276.618-5.521.618-6.799zm12.67 4.162h12.65v1.401h-12.65zm-2.287 3.894h16.895v1.401h-16.895zm2.287-8.798h1.689v5.604h-1.689zm-.124 16.092h12.878v1.401h-12.878zm0-4.039h1.689v4.41h-1.689zm36.205-12.733h1.71v9.54h-1.71zm-4.039 4.471h4.307v1.381h-4.307zm-1.936-3.564h1.792c0 4.636-3.214 7.664-8.55 9.024l-.598-1.38c4.718-1.154 7.356-3.606 7.356-6.882zm-6.367 0h7.747v1.38h-7.747zm2.06 9.436h11.992v4.595h-10.24v2.946h-1.69V410.6h10.24v-1.895h-10.302zm.062 6.738h12.548v1.36h-12.548zm28.911-11.559h1.69v2.843h-1.69zm-.247-4.389h1.504v.577c0 2.802-3.461 4.595-7.376 4.966l-.556-1.298c3.358-.268 6.428-1.71 6.428-3.668zm.742 0h1.483v.577c0 1.937 3.07 3.4 6.429 3.668l-.557 1.298c-3.894-.371-7.355-2.164-7.355-4.966zm-6.511-.556h13.784v1.339h-13.784zm.021 10.982h13.722v1.36H700.52zm-1.566-3.832h16.895v1.38h-16.895zm8.427 6.098c3.585 0 5.583.845 5.583 2.452 0 1.628-1.998 2.452-5.583 2.452s-5.605-.824-5.605-2.452c0-1.607 2.02-2.452 5.605-2.452m0 1.175c-2.473 0-3.853.432-3.853 1.277s1.38 1.278 3.853 1.278c2.452 0 3.853-.433 3.853-1.278s-1.401-1.277-3.853-1.277m-.845-5.151h1.689v2.575h-1.689zm16.337-8.427c2.741 0 4.677 2.534 4.677 6.49 0 3.977-1.936 6.511-4.677 6.511s-4.677-2.534-4.677-6.511c0-3.956 1.937-6.49 4.677-6.49m0 1.545c-1.813 0-3.049 1.937-3.049 4.945 0 3.029 1.236 5.007 3.049 5.007 1.793 0 3.05-1.978 3.05-5.007 0-3.008-1.257-4.945-3.05-4.945m7.644-2.967h1.731v18.626h-1.731zm1.319 7.438h3.462v1.442h-3.462zm5.005-4.265h9.231v1.401h-9.231zm4.616 2.637c2.328 0 4.017 1.752 4.017 4.265 0 2.494-1.689 4.245-4.017 4.245-2.308 0-3.998-1.751-3.998-4.245 0-2.513 1.69-4.265 3.998-4.265m0 1.463c-1.422 0-2.452 1.154-2.452 2.802s1.03 2.803 2.452 2.803c1.442 0 2.493-1.154 2.493-2.803 0-1.648-1.051-2.802-2.493-2.802m9.539-7.273h1.649v18.626h-1.649zm-2.967 7.83h3.524v1.421h-3.524zm-1.009-7.418h1.607v17.308h-1.607zm-6.388.124h1.69v3.502h-1.69zm19.325 9.045h1.69v5.584h-1.69zm6.882 0h1.71v5.584h-1.71zm-11.002 5.254h16.874v1.422h-16.874zm8.406-13.661c3.936 0 6.758 1.875 6.758 4.801 0 2.905-2.822 4.78-6.758 4.78-3.956 0-6.779-1.875-6.779-4.78 0-2.926 2.823-4.801 6.779-4.801m0 1.36c-2.987 0-5.13 1.36-5.13 3.441 0 2.061 2.143 3.42 5.13 3.42s5.11-1.359 5.11-3.42c0-2.081-2.122-3.441-5.11-3.441m12.357 14.602q-.542 0-.93-.388a1.27 1.27 0 0 1-.388-.929q0-.542.388-.929.388-.388.93-.388.54 0 .929.388.388.387.388.929 0 .359-.183.659-.176.3-.476.482a1.25 1.25 0 0 1-.658.176m-446.235 20.519h3.565v1.422h-3.565zm-3.482-4.904h1.339v3.544c0 3.894-1.627 7.665-4.347 9.334l-1.071-1.298c2.554-1.504 4.079-4.842 4.079-8.036zm.33 0h1.318v3.482c0 2.988 1.402 6.161 3.853 7.645l-.989 1.339c-2.678-1.648-4.182-5.357-4.182-8.984zm9.993-1.751h1.648v18.626h-1.648zm-3.771.392h1.607v17.307h-1.607zm15.761 4.78h4.141v1.38h-4.141zm-.144 4.677h4.244v1.38h-4.244zm7.108-9.849h1.648v18.626h-1.648zm-3.729.474h1.607v17.204h-1.607zm-4.162 1.875h1.648c0 4.883-1.957 9.272-6.964 12.259l-.989-1.215c4.347-2.638 6.305-6.346 6.305-10.735zm-5.481 0h6.161v1.401h-6.161zm18.13 6.305h16.895v1.298h-16.895zm1.998 2.802h12.775v3.976h-11.023v2.185h-1.69v-3.359h11.044v-1.586h-11.106zm.062 5.707h13.311v1.236h-13.311zm.083-16.627h12.568v3.873h-10.838v2.02h-1.689v-3.174h10.858v-1.504h-10.899zm.041 5.48h12.877v1.237h-12.877zm30.971-1.875h5.625v1.422h-5.625zm0 5.893h5.625v1.422h-5.625zm-3.42-8.612c2.699 0 4.636 2.534 4.636 6.49 0 3.977-1.937 6.511-4.636 6.511-2.72 0-4.636-2.534-4.636-6.511 0-3.956 1.916-6.49 4.636-6.49m0 1.545c-1.792 0-3.029 1.937-3.029 4.945 0 3.029 1.237 5.007 3.029 5.007 1.793 0 3.029-1.978 3.029-5.007 0-3.008-1.236-4.945-3.029-4.945m8.674-2.988h1.69v18.668h-1.69zm19.367.021h1.627v11.786h-1.627zm-3.029 5.048h3.523v1.422h-3.523zm-.948-4.677h1.607v10.755h-1.607zm-10.178 1.854h9.436v1.36h-9.436zm4.739 2.308c2.328 0 3.956 1.277 3.956 3.194 0 1.936-1.628 3.193-3.956 3.193-2.349 0-3.977-1.257-3.977-3.193 0-1.917 1.628-3.194 3.977-3.194m0 1.277c-1.463 0-2.452.763-2.452 1.917 0 1.174.989 1.916 2.452 1.916 1.442 0 2.431-.742 2.431-1.916 0-1.154-.989-1.917-2.431-1.917m-.845-5.666h1.669v2.844h-1.669zm5.79 11.971c3.873 0 6.201 1.154 6.201 3.235 0 2.06-2.328 3.235-6.201 3.235-3.915 0-6.223-1.175-6.223-3.235 0-2.081 2.308-3.235 6.223-3.235m0 1.319c-2.864 0-4.533.68-4.533 1.916s1.669 1.937 4.533 1.937c2.822 0 4.512-.701 4.512-1.937s-1.69-1.916-4.512-1.916m21.983-13.434h1.71v18.626h-1.71zm1.298 7.644h3.461v1.442h-3.461zm-14.011-4.677h10.982v1.401h-10.982zm5.563 2.946c2.637 0 4.533 1.772 4.533 4.286s-1.896 4.286-4.533 4.286c-2.617 0-4.533-1.772-4.533-4.286s1.916-4.286 4.533-4.286m0 1.422c-1.69 0-2.905 1.175-2.905 2.864 0 1.669 1.215 2.864 2.905 2.864s2.905-1.195 2.905-2.864c0-1.689-1.216-2.864-2.905-2.864m-.886-7.108h1.71v3.379h-1.71zm22.931 4.224h5.748v1.401h-5.748zm0 5.13h5.748v1.422h-5.748zm-7.809-7.768h8.468v12.115h-8.468zm6.778 1.381h-5.109v9.354h5.109zm6.12-3.215h1.689v18.668h-1.689zm23.698 0h1.731v18.668h-1.731zm1.319 7.356h3.461v1.442h-3.461zm-13.125 5.234h1.463c3.441 0 5.851-.124 8.633-.639l.185 1.442c-2.864.536-5.315.639-8.818.639h-1.463zm0-10.776h8.654v1.401h-6.964v10.013h-1.69zm32.1.989h3.234v1.421h-3.234zm0 3.956h3.234v1.421h-3.234zm-8.737-5.646c2.803 0 4.863 1.813 4.863 4.409 0 2.576-2.06 4.368-4.863 4.368-2.802 0-4.862-1.792-4.862-4.368 0-2.596 2.06-4.409 4.862-4.409m0 1.442c-1.854 0-3.193 1.216-3.193 2.967s1.339 2.947 3.193 2.947 3.194-1.195 3.194-2.947c0-1.751-1.339-2.967-3.194-2.967m7.541-2.534h1.711v11.023h-1.711zm-4.223 11.621c3.791 0 6.119 1.298 6.119 3.482 0 2.204-2.328 3.482-6.119 3.482s-6.12-1.278-6.12-3.482c0-2.184 2.329-3.482 6.12-3.482m0 1.38c-2.761 0-4.451.763-4.451 2.102s1.69 2.122 4.451 2.122 4.45-.783 4.45-2.122-1.689-2.102-4.45-2.102m23.178-12.98h1.71v13.969h-1.71zm1.174 6.098h3.297v1.443h-3.297zm-13.866-3.853h11.002v1.381h-11.002zm5.501 2.411c2.637 0 4.45 1.381 4.45 3.482 0 2.081-1.813 3.462-4.45 3.462-2.658 0-4.471-1.381-4.471-3.462 0-2.101 1.813-3.482 4.471-3.482m0 1.339c-1.69 0-2.844.845-2.844 2.143 0 1.278 1.154 2.122 2.844 2.122 1.669 0 2.823-.844 2.823-2.122 0-1.298-1.154-2.143-2.823-2.143m-.866-6.016h1.711v2.988h-1.711zm-1.833 16.813h12.445v1.401h-12.445zm0-3.935h1.71v4.532h-1.71zm25.8-11.724h1.359v2.493c0 2.782-1.607 5.707-4.347 6.923l-.927-1.339c2.452-1.072 3.915-3.482 3.915-5.584zm.267 0h1.36v2.493c0 2.06 1.401 4.162 3.791 5.089l-.927 1.298c-2.678-1.071-4.224-3.647-4.224-6.387zm9.89-1.133h1.628v11.476h-1.628zm-2.967 4.965h3.524v1.401h-3.524zm-1.03-4.615h1.628v10.529h-1.628zm-.494 11.538c3.832 0 6.222 1.236 6.222 3.359 0 2.101-2.39 3.317-6.222 3.317-3.853 0-6.202-1.216-6.202-3.317 0-2.123 2.349-3.359 6.202-3.359m0 1.339c-2.803 0-4.533.742-4.533 2.02 0 1.257 1.73 1.998 4.533 1.998 2.802 0 4.512-.741 4.512-1.998 0-1.278-1.71-2.02-4.512-2.02m16.935-4.45h1.689v2.864h-1.689zm-7.562-.948h16.833v1.381H548.89zm2.184-7.232h12.465v5.666h-12.465zm10.796 1.36h-9.107v2.946h9.107zm-10.94 9.066h12.651v4.182H552.66v2.267h-1.689v-3.503h10.92v-1.628H550.93zm.041 6.037h13.166v1.339h-13.166zm16.894-9.313h16.833v1.401h-16.833zm2.225-2.885h12.61v1.381h-12.61zm0-4.285h12.404v1.401h-10.715v3.997h-1.689zm-.206 10.178h12.651v4.389h-10.92v2.348h-1.69v-3.626h10.92v-1.772h-10.961zm.041 6.284h13.166v1.36h-13.166zm25.3-16.751c4.1 0 6.552 1.154 6.552 3.235s-2.452 3.235-6.552 3.235c-4.121 0-6.552-1.154-6.552-3.235s2.431-3.235 6.552-3.235m0 1.298c-3.049 0-4.801.701-4.801 1.937s1.752 1.937 4.801 1.937c3.029 0 4.78-.701 4.78-1.937s-1.751-1.937-4.78-1.937m-8.427 6.408h16.834v1.38h-16.834zm2.04 2.967h12.651v4.203h-10.92v2.267h-1.69v-3.503h10.92v-1.648h-10.961zm.041 6.099h13.166v1.339h-13.166zm23.451-15.412h8.551v8.633h-8.551zm6.882 1.38h-5.213v5.873h5.213zm5.089-3.07h1.71v13.661h-1.71zm1.175 5.687h3.296v1.422h-3.296zm-11.065 11.147h12.445v1.401h-12.445zm0-4.471h1.71v5.068h-1.71zm29.957-4.925h3.441v1.443h-3.441zm-1.257-7.438h1.731v18.647h-1.731zm-11.868 1.834h1.71v11.538h-1.71zm0 10.652h1.484c2.761 0 5.583-.185 8.653-.824l.206 1.422c-3.173.659-6.037.845-8.859.845h-1.484zm20.005-10.611h11.992v1.422h-11.992zm-1.772 12.754h16.834v1.422h-16.834zm6.532-6.655h1.71v7.356h-1.71zm6.593-6.099h1.689v1.855c0 2.307 0 4.862-.679 8.633l-1.711-.227c.701-3.564.701-6.181.701-8.406zm8.955 13.116-.117.791q-.125.834-.381 1.785a33 33 0 0 1-.519 1.792 55 55 0 0 1-.446 1.339h-1.317l.248-1.236a47 47 0 0 0 .308-1.72q.16-.944.263-1.931l.088-.82zm17.345-11.55h4.986v1.401h-4.986zm-.165 3.874h5.027v1.401h-5.027zm4.863-7.294h1.71v11.167h-1.71zm-5.831 1.401h1.833c0 4.801-3.317 8.159-8.674 9.766l-.7-1.38c4.759-1.381 7.541-4.121 7.541-7.644zm-6.573 0h7.747v1.401h-7.747zm8.056 9.972c3.771 0 6.161 1.34 6.161 3.586s-2.39 3.585-6.161 3.585-6.16-1.34-6.16-3.585 2.39-3.586 6.16-3.586m0 1.34c-2.72 0-4.471.845-4.471 2.246s1.751 2.225 4.471 2.225c2.741 0 4.492-.824 4.492-2.225s-1.751-2.246-4.492-2.246m23.302-12.713h1.71v11.27h-1.71zm-3.091 5.646h3.853v1.421h-3.853zm-7.273 6.613h12.074v6.12h-12.074zm10.405 1.381h-8.736v3.358h8.736zm-13.619-11.703h10.776v1.38h-10.776zm5.377 2.328c2.514 0 4.307 1.36 4.307 3.338s-1.793 3.297-4.307 3.297c-2.513 0-4.306-1.319-4.306-3.297s1.793-3.338 4.306-3.338m0 1.319c-1.566 0-2.678.803-2.678 2.019 0 1.195 1.112 1.999 2.678 1.999s2.679-.804 2.679-1.999c0-1.216-1.113-2.019-2.679-2.019m-.844-5.769h1.71v3.111h-1.71zm22.807.494c4.1 0 6.552 1.154 6.552 3.235s-2.452 3.235-6.552 3.235c-4.121 0-6.552-1.154-6.552-3.235s2.431-3.235 6.552-3.235m0 1.298c-3.05 0-4.801.701-4.801 1.937s1.751 1.937 4.801 1.937c3.028 0 4.78-.701 4.78-1.937s-1.752-1.937-4.78-1.937m-8.427 6.408h16.833v1.38h-16.833zm2.039 2.967h12.651v4.203h-10.92v2.267h-1.689v-3.503h10.92v-1.648h-10.962zm.042 6.099h13.166v1.339h-13.166zm27.901-16.401c2.782 0 4.821 1.689 4.821 4.141 0 2.432-2.039 4.121-4.821 4.121-2.761 0-4.801-1.689-4.801-4.121 0-2.452 2.04-4.141 4.801-4.141m0 1.401c-1.792 0-3.152 1.133-3.152 2.74s1.36 2.72 3.152 2.72c1.813 0 3.153-1.112 3.153-2.72 0-1.607-1.34-2.74-3.153-2.74m8.324-2.081h1.731v9.54h-1.731zm-10.322 10.446h12.053v4.533h-10.343v2.802h-1.669v-4.079h10.322v-1.875h-10.363zm.041 6.573h12.63v1.36h-12.63zm29.256-17.019h1.71v18.626h-1.71zm-5.46 1.999h1.689c0 5.398-2.431 10.116-8.653 13.166l-.907-1.381c5.378-2.596 7.871-6.552 7.871-11.497zm-7.026 0h7.768v1.401h-7.768zm25.424 5.233h3.523v1.422h-3.523zm6.634-7.232h1.649v18.626h-1.649zm-3.688.392h1.628v17.307h-1.628zm-6.305 1.153c2.411 0 3.977 2.493 3.977 6.491s-1.566 6.49-3.977 6.49-3.956-2.493-3.956-6.49 1.546-6.491 3.956-6.491m0 1.587c-1.463 0-2.39 1.895-2.39 4.904s.927 4.903 2.39 4.903c1.484 0 2.411-1.895 2.411-4.903 0-3.009-.927-4.904-2.411-4.904m-448.16 27.868h1.71v18.626h-1.71zm-5.46 1.999h1.689c0 5.398-2.431 10.116-8.654 13.166l-.906-1.381c5.378-2.596 7.871-6.552 7.871-11.497zm-7.026 0h7.767v1.401h-7.767zm17.862 8.241h16.895v1.401h-16.895zm2.143-9.766h12.568v4.512h-10.838v2.514h-1.689v-3.771h10.858v-1.916h-10.899zm.041 6.47h12.939v1.339h-12.939zm5.398.7h1.71v3.297h-1.71zm-5.707 5.419h12.96v5.398h-1.71v-3.997h-11.25zm29.709-13.063h1.71v18.626h-1.71zm1.298 7.644h3.462v1.442h-3.462zm-14.011-4.677h10.982v1.401h-10.982zm5.564 2.946c2.637 0 4.532 1.772 4.532 4.286s-1.895 4.286-4.532 4.286c-2.617 0-4.533-1.772-4.533-4.286s1.916-4.286 4.533-4.286m0 1.422c-1.69 0-2.906 1.175-2.906 2.864 0 1.669 1.216 2.864 2.906 2.864 1.689 0 2.905-1.195 2.905-2.864 0-1.689-1.216-2.864-2.905-2.864m-.886-7.108h1.71v3.379h-1.71zm16.646 5.357h12.651v1.401h-12.651zm-2.287 3.894h16.895v1.401h-16.895zm2.287-8.798h1.69v5.604h-1.69zm-.124 16.092h12.878v1.401h-12.878zm0-4.039h1.69v4.41h-1.69zm36.782-12.733h1.649v18.626h-1.649zm-8.077 7.603h4.698v1.38h-4.698zm4.204-7.129h1.607v17.204h-1.607zm-3.977 1.875h1.648c0 4.883-1.957 9.272-6.984 12.259l-1.01-1.215c4.389-2.638 6.346-6.346 6.346-10.735zm-5.522 0h6.161v1.401h-6.161zm38.101-2.349h1.648v18.626h-1.648zm-6.779 6.676h3.564v1.421h-3.564zm3.049-6.243h1.608v17.245h-1.608zm-6.634 2.452h1.319v2.369c0 4.08-1.566 7.933-4.307 9.663l-1.051-1.277c2.597-1.566 4.039-4.966 4.039-8.386zm.35 0h1.319v2.369c0 3.235 1.401 6.47 3.956 7.953l-1.051 1.257c-2.72-1.648-4.224-5.316-4.224-9.21zm-3.873-.722h8.509v1.422h-8.509zm26.088-1.298h4.924v1.401h-4.924zm4.327 0h1.648v.557c0 1.112 0 3.42-.865 6.593l-1.669-.206c.886-3.132.886-5.254.886-6.387zm3.029 0h5.027v1.401h-5.027zm4.244 0h1.648v.763c0 1.215 0 3.399-.741 6.469l-1.669-.226c.762-3.008.762-5.028.762-6.243zm-13.228 6.449h16.896v1.381h-16.896zm7.562 1.072h1.689v4.079h-1.689zm-5.44 3.441h12.61v6.552h-12.61zm10.941 1.38h-9.272v3.771h9.272zm19.428-13.228h1.71v18.668h-1.71zm-8.118 1.443c2.761 0 4.739 2.534 4.739 6.49 0 3.977-1.978 6.511-4.739 6.511-2.74 0-4.718-2.534-4.718-6.511 0-3.956 1.978-6.49 4.718-6.49m0 1.545c-1.813 0-3.09 1.937-3.09 4.945 0 3.029 1.277 5.007 3.09 5.007 1.834 0 3.091-1.978 3.091-5.007 0-3.008-1.257-4.945-3.091-4.945m21.097 4.265h3.523v1.422h-3.523zm6.635-7.232h1.648v18.626h-1.648zm-3.688.392h1.627v17.307h-1.627zm-6.305 1.153c2.41 0 3.976 2.493 3.976 6.491s-1.566 6.49-3.976 6.49-3.956-2.493-3.956-6.49 1.545-6.491 3.956-6.491m0 1.587c-1.463 0-2.39 1.895-2.39 4.904s.927 4.903 2.39 4.903c1.483 0 2.41-1.895 2.41-4.903 0-3.009-.927-4.904-2.41-4.904m18.892 6.449h1.69v5.584h-1.69zm6.882 0h1.71v5.584h-1.71zm-11.003 5.254h16.875v1.422h-16.875zm8.407-13.661c3.935 0 6.758 1.875 6.758 4.801 0 2.905-2.823 4.78-6.758 4.78-3.956 0-6.779-1.875-6.779-4.78 0-2.926 2.823-4.801 6.779-4.801m0 1.36c-2.988 0-5.131 1.36-5.131 3.441 0 2.061 2.143 3.42 5.131 3.42 2.987 0 5.109-1.359 5.109-3.42 0-2.081-2.122-3.441-5.109-3.441m12.356 14.602q-.542 0-.929-.388a1.26 1.26 0 0 1-.388-.929q0-.542.388-.929.387-.388.929-.388t.929.388q.388.387.388.929 0 .359-.183.659-.175.3-.475.482a1.25 1.25 0 0 1-.659.176m23.28-17.157h1.689v18.668h-1.689zm-4.018 6.8h4.512v1.401h-4.512zm-4.883-4.121h1.38v2.782c0 4.017-2.307 7.994-5.254 9.519l-1.009-1.36c2.678-1.319 4.883-4.842 4.883-8.159zm.35 0h1.36v2.782c0 3.111 2.163 6.51 4.862 7.788l-1.009 1.339c-2.947-1.463-5.213-5.295-5.213-9.127zm-4.553-.762h10.137v1.421h-10.137zm20.705 3.688h12.651v1.401h-12.651zm-2.287 3.894h16.895v1.401h-16.895zm2.287-8.798h1.69v5.604h-1.69zm-.124 16.092H575.4v1.401h-12.878zm0-4.039h1.69v4.41h-1.69zm35.34-12.733h1.71v11.992h-1.71zm1.236 5.172h3.235v1.421h-3.235zm-5.377 6.984c3.77 0 6.057 1.175 6.057 3.215s-2.287 3.214-6.057 3.214c-3.75 0-6.058-1.175-6.058-3.214 0-2.04 2.308-3.215 6.058-3.215m0 1.319c-2.72 0-4.369.701-4.369 1.896 0 1.215 1.649 1.895 4.369 1.895 2.74 0 4.388-.68 4.388-1.895 0-1.195-1.648-1.896-4.388-1.896m-8.551-11.373h11.002v1.36H585.17zm5.501 2.307c2.658 0 4.451 1.278 4.451 3.276 0 2.02-1.793 3.297-4.451 3.297-2.678 0-4.471-1.277-4.471-3.297 0-1.998 1.793-3.276 4.471-3.276m0 1.298c-1.71 0-2.843.783-2.843 1.978 0 1.216 1.133 1.999 2.843 1.999 1.669 0 2.823-.783 2.823-1.999 0-1.195-1.154-1.978-2.823-1.978m-.865-5.872h1.71v3.029h-1.71zm18.789 1.133h1.422v1.896c0 3.585-2.019 6.552-5.131 7.768l-.906-1.381c2.802-1.03 4.615-3.544 4.615-6.387zm.309 0h1.401v2.02c0 2.513 1.855 4.842 4.533 5.769l-.906 1.339c-2.988-1.113-5.028-3.874-5.028-7.108zm7.912-.968h1.71v11.291h-1.71zm1.236 4.801h3.235v1.442h-3.235zm-5.46 7.005c3.812 0 6.12 1.257 6.12 3.4s-2.308 3.379-6.12 3.379-6.119-1.236-6.119-3.379 2.307-3.4 6.119-3.4m0 1.36c-2.761 0-4.45.742-4.45 2.04s1.689 2.04 4.45 2.04 4.451-.742 4.451-2.04-1.69-2.04-4.451-2.04m18.383-12.198h11.991v1.401h-11.991zm-2.164 7.006h16.896v1.38h-16.896zm13.043-7.006h1.669v1.381c0 1.586 0 3.482-.619 6.078l-1.669-.206c.619-2.534.619-4.327.619-5.872zm-4.636 10.612c3.997 0 6.469 1.277 6.469 3.502s-2.472 3.503-6.469 3.503-6.449-1.278-6.449-3.503 2.451-3.502 6.449-3.502m0 1.401c-2.947 0-4.739.762-4.739 2.101s1.792 2.102 4.739 2.102 4.739-.763 4.739-2.102-1.793-2.101-4.739-2.101m20.499-8.16h4.203v1.422h-4.203zm3.668-4.821h1.71v11.106h-1.71zm-4.41 11.662c3.833 0 6.202 1.298 6.202 3.482 0 2.205-2.369 3.462-6.202 3.462-3.853 0-6.222-1.257-6.222-3.462 0-2.184 2.369-3.482 6.222-3.482m0 1.339c-2.802 0-4.512.783-4.512 2.143 0 1.339 1.71 2.122 4.512 2.122 2.803 0 4.513-.783 4.513-2.122 0-1.36-1.71-2.143-4.513-2.143m-4.45-11.126h1.401v1.504c0 3.441-2.102 6.387-5.192 7.541l-.886-1.36c2.761-1.009 4.677-3.502 4.677-6.181zm.33 0h1.38v1.504c0 2.411 1.813 4.718 4.512 5.666l-.865 1.36c-3.029-1.092-5.027-3.894-5.027-7.026zm-4.492-.515h9.952v1.401h-9.952zm23.116.536h1.401v1.504c0 3.399-2.101 6.305-5.213 7.458l-.886-1.359c2.782-.989 4.698-3.462 4.698-6.099zm.33 0h1.38v1.504c0 2.39 1.813 4.718 4.512 5.666l-.865 1.36c-3.029-1.113-5.027-3.915-5.027-7.026zm4.883 2.946h4.141v1.422h-4.141zm-9.375-3.565h9.952v1.381h-9.952zm2.308 10.879h12.424v6.47h-1.71v-5.068h-10.714zm10.714-12.156h1.71v11.147h-1.71zm18.892.021h1.731V472.6h-1.731zm-10.24 16.792h12.527v1.401h-12.527zm0-4.595h1.689v5.069h-1.689zm1.978-10.92c2.781 0 4.842 1.896 4.842 4.595 0 2.678-2.061 4.595-4.842 4.595-2.782 0-4.863-1.917-4.863-4.595 0-2.699 2.081-4.595 4.863-4.595m0 1.484c-1.813 0-3.194 1.277-3.194 3.111 0 1.813 1.381 3.09 3.194 3.09s3.194-1.277 3.194-3.09c0-1.834-1.381-3.111-3.194-3.111m20.195-.928h8.551v12.054h-8.551zm6.882 1.381h-5.213v9.292h5.213zm4.986-3.235h1.731v18.626h-1.731zm1.319 7.438h3.462v1.442h-3.462zm13.453-7.026c4.018 0 6.552 1.319 6.552 3.523s-2.534 3.503-6.552 3.503c-4.039 0-6.552-1.298-6.552-3.503s2.513-3.523 6.552-3.523m0 1.36c-2.967 0-4.801.783-4.801 2.163 0 1.36 1.834 2.164 4.801 2.164 2.946 0 4.801-.804 4.801-2.164 0-1.38-1.855-2.163-4.801-2.163m-6.367 10.467h12.713v6.14h-12.713zm11.044 1.38h-9.354v3.379h9.354zm-13.104-4.574h16.833v1.381h-16.833zm27.381-7.871c3.874 0 6.758 2.061 6.758 5.151 0 3.112-2.884 5.152-6.758 5.152s-6.779-2.04-6.779-5.152c0-3.09 2.905-5.151 6.779-5.151m0 1.402c-2.946 0-5.13 1.504-5.13 3.749 0 2.226 2.184 3.75 5.13 3.75s5.13-1.524 5.13-3.75c0-2.245-2.184-3.749-5.13-3.749m-8.406 12.156h16.874v1.442h-16.874zm18.954.185h16.874v1.422h-16.874zm7.541-3.997h1.71v4.595h-1.71zm-5.501-9.539h12.753v5.645h-11.002v3.729h-1.69v-5.109h11.003v-2.885h-11.064zm.061 8.653h13.125v1.401h-13.125zm-442.235 27.271h1.689v3.523h-1.689zm6.84 0h1.69v3.523h-1.69zm-11.002 2.905h16.833v1.381H323.01zm8.406 2.782c3.997 0 6.387 1.174 6.387 3.296s-2.39 3.318-6.387 3.318-6.387-1.196-6.387-3.318 2.39-3.296 6.387-3.296m0 1.318c-2.905 0-4.656.721-4.656 1.978 0 1.278 1.751 1.978 4.656 1.978 2.926 0 4.657-.7 4.657-1.978 0-1.257-1.731-1.978-4.657-1.978m.021-12.98c4.038 0 6.552 1.298 6.552 3.482 0 2.163-2.514 3.441-6.552 3.441-4.059 0-6.552-1.278-6.552-3.441 0-2.184 2.493-3.482 6.552-3.482m0 1.339c-2.967 0-4.801.783-4.801 2.143 0 1.339 1.834 2.122 4.801 2.122s4.8-.783 4.8-2.122c0-1.36-1.833-2.143-4.8-2.143m24.105-1.669h1.71v18.626h-1.71zm-5.46 1.999h1.689c0 5.398-2.431 10.116-8.653 13.166l-.907-1.381c5.378-2.596 7.871-6.552 7.871-11.497zm-7.026 0h7.768v1.401h-7.768zm22.58 7.396h1.71v4.451h-1.71zm.845-8.2c2.864 0 4.924 1.793 4.924 4.389s-2.06 4.388-4.924 4.388-4.924-1.792-4.924-4.388 2.06-4.389 4.924-4.389m0 1.463c-1.896 0-3.255 1.195-3.255 2.926 0 1.73 1.359 2.926 3.255 2.926s3.255-1.196 3.255-2.926-1.359-2.926-3.255-2.926m7.047-2.658h1.71v18.626h-1.71zm1.215 7.665h3.441v1.442h-3.441zm-13.784 6.943-.247-1.421c3.358-.021 7.85-.042 11.641-.557l.144 1.278c-3.935.659-8.282.7-11.538.7m38.183-14.608h1.71v18.626h-1.71zm-13.125 14.979-.226-1.442c3.523-.021 8.159-.021 12.177-.556l.123 1.277c-4.162.68-8.633.742-12.074.721m.165-12.486h11.312v1.401h-11.312zm5.646 2.411c2.637 0 4.471 1.401 4.471 3.502s-1.834 3.503-4.471 3.503c-2.617 0-4.43-1.401-4.43-3.503 0-2.101 1.813-3.502 4.43-3.502m0 1.36c-1.669 0-2.823.844-2.823 2.142s1.154 2.185 2.823 2.185c1.689 0 2.843-.886 2.843-2.185s-1.154-2.142-2.843-2.142m-.845-6.079h1.71v3.194h-1.71zm14.421 1.216h8.551v8.015h-8.551zm6.882 1.381h-5.213v5.274h5.213zm5.089-2.782h1.71v11.003h-1.71zm1.236 4.615h3.235v1.443h-3.235zm-5.46 7.026c3.791 0 6.12 1.298 6.12 3.482 0 2.205-2.329 3.483-6.12 3.483s-6.119-1.278-6.119-3.483c0-2.184 2.328-3.482 6.119-3.482m0 1.381c-2.761 0-4.45.762-4.45 2.101 0 1.34 1.689 2.123 4.45 2.123s4.451-.783 4.451-2.123c0-1.339-1.69-2.101-4.451-2.101m18.851-12.713c4.101 0 6.552 1.154 6.552 3.235s-2.451 3.235-6.552 3.235c-4.121 0-6.552-1.154-6.552-3.235s2.431-3.235 6.552-3.235m0 1.298c-3.049 0-4.8.701-4.8 1.937s1.751 1.937 4.8 1.937c3.029 0 4.78-.701 4.78-1.937s-1.751-1.937-4.78-1.937m-8.427 6.408h16.834v1.38h-16.834zm2.04 2.967h12.651v4.203h-10.92v2.267h-1.69v-3.503h10.92v-1.648h-10.961zm.041 6.099h13.166v1.339h-13.166zm32.558-11.951h4.698v1.402h-4.698zm3.73-5.109h1.71v13.64h-1.71zm-10.179 16.792h12.404v1.401h-12.404zm0-4.348h1.71v5.069h-1.71zm1.319-10.137h1.401v1.504c0 3.379-2.102 6.305-5.213 7.459l-.886-1.36c2.782-.989 4.698-3.461 4.698-6.099zm.329 0h1.381v1.484c0 2.41 1.813 4.759 4.512 5.707l-.865 1.339c-3.029-1.092-5.028-3.894-5.028-7.046zm-4.491-.803h9.952v1.38h-9.952zm30.987-1.525h1.71v18.626h-1.71zm1.298 7.644h3.461v1.442h-3.461zm-14.011-4.677h10.982v1.401h-10.982zm5.563 2.946c2.637 0 4.533 1.772 4.533 4.286s-1.896 4.286-4.533 4.286c-2.617 0-4.533-1.772-4.533-4.286s1.916-4.286 4.533-4.286m0 1.422c-1.689 0-2.905 1.175-2.905 2.864 0 1.669 1.216 2.864 2.905 2.864 1.69 0 2.905-1.195 2.905-2.864 0-1.689-1.215-2.864-2.905-2.864m-.886-7.108h1.71v3.379h-1.71zm16.647 5.357h12.651v1.401H488.52zm-2.287 3.894h16.895v1.401h-16.895zm2.287-8.798h1.689v5.604h-1.689zm-.124 16.092h12.878v1.401h-12.878zm0-4.039h1.69v4.41h-1.69zm24.007-11.229h8.263v1.401h-8.263zm7.397 0h1.669v.824c0 1.381 0 3.771-.7 7.253l-1.711.021c.742-3.462.742-5.873.742-7.274zm.227 3.503v1.257l-7.747.638-.268-1.462zm-4.162 5.007h1.71v7.623h-1.71zm8.736-10.014h1.71v18.647h-1.71zm-13.537 10.817-.247-1.422c3.585 0 8.283-.041 12.362-.597l.124 1.236c-4.203.701-8.736.763-12.239.783m9.334 1.422h4.656v1.36h-4.656zm17.47-10.302h1.669c0 5.377-1.813 10.322-8.489 13.64l-.927-1.319c5.893-2.905 7.747-7.067 7.747-12.136zm-6.737 0h7.747v1.38h-7.747zm6.469 4.615v1.319l-7.129.7-.267-1.524zm4.945-6.573h1.731v18.647h-1.731zm1.257 7.562h3.441v1.422h-3.441zm17.842-7.52h1.71v10.26h-1.71zm1.195 4.471h3.276v1.421h-3.276zm-11.188 6.634h1.669v2.246h8.344v-2.246h1.69v7.253h-11.703zm1.669 3.606v2.246h8.344v-2.246zm-3.606-6.284h1.463c3.379 0 5.79-.103 8.695-.618l.144 1.421c-2.946.495-5.398.598-8.839.598h-1.463zm-.041-7.541h8.386v5.006h-6.676v3.4h-1.669v-4.718h6.655v-2.287h-6.696zm31.729-.907h1.71v18.626h-1.71zm-12.363 1.813h1.69v11.538h-1.69zm0 10.529h1.525c2.823 0 5.769-.206 8.921-.865l.206 1.462c-3.234.66-6.181.886-9.127.886h-1.525zm30.369-12.363h1.731v18.668h-1.731zm1.319 7.356h3.461v1.442h-3.461zm-13.125 5.234h1.463c3.441 0 5.851-.124 8.633-.639l.185 1.442c-2.864.536-5.316.639-8.818.639h-1.463zm0-10.776h8.653v1.401h-6.964v10.013h-1.689zm21.004.241-.146 10.771h-1.698l-.146-10.771zm-.995 15.102q-.542 0-.929-.388a1.26 1.26 0 0 1-.388-.929q0-.542.388-.929.387-.388.929-.388t.929.388q.388.387.388.929 0 .359-.183.659-.176.3-.476.482a1.24 1.24 0 0 1-.658.176" fill="#545454"/><circle cx="842" cy="171" r="58" fill="#D8B18E" fill-opacity=".7"/><circle cx="254" cy="11" r="58" fill="#D8B18E" fill-opacity=".7"/><circle cx="42" cy="387" r="58" fill="#D8B18E" fill-opacity=".7"/><circle cx="1091" cy="611" r="58" fill="#D8B18E" fill-opacity=".7"/><circle cx="1862" cy="42" r="58" fill="#D8B18E" fill-opacity=".7"/><circle cx="1848" cy="468" r="58" fill="#D8B18E" fill-opacity=".7"/><path d="M342.835 201.357q3.668-.992 7.831-.297 4.164.594 7.137 2.577 2.974 1.982 6.047 6.146 3.073 4.162 3.767 7.038.099.495.595 1.586.396.792.693 2.081.2 1.19.496 2.082.397.892.595 2.875.198 2.082.495 3.073.298 1.09.298 2.973 0 1.785-.298 2.875-.297 1.09-.495 3.569-.198 2.577-.298 3.073-.198.495-.594 2.577-.496 2.28-.892 3.172-.596 1.586.297 3.073.892 1.388 5.749 6.74 2.28 2.478 2.776 3.965.495 1.389-.298 3.172-.792 1.686-1.784 2.28-.893.595-2.577.595-1.785 0-3.569-1.388t-6.245-6.245q-.792-.892-1.189-.793-.297 0-1.685 1.19-2.875 2.478-3.569 2.478-.297 0-1.189.595-.893.495-1.685.694-.695.099-1.884.594-1.288.496-5.254.496-3.865-.099-5.452-.694-9.615-3.767-14.373-13.679-.793-1.685-.793-1.884 0-.297-.595-1.685-.594-1.487-.693-2.478a6.3 6.3 0 0 0-.496-1.982q-.496-1.19-.496-6.939t.496-6.84q.495-.991.595-3.073.198-2.18.694-3.568.495-1.488.594-2.181.397-2.181 3.371-6.939 1.09-1.684 1.288-2.082.397-.693 2.28-2.577 1.884-1.983 2.577-2.379.299-.297 1.983-1.388 1.487-1.09 1.685-1.09.199 0 .991-.397.694-.396 3.073-.991m8.327 10.607q-1.288-.694-2.28-.595-.991 0-3.172.793l-2.676.892q-2.18.695-5.056 4.659-2.776 3.965-3.172 6.939-.198 1.487-.396 1.784-.298.495-.397 3.172a92 92 0 0 1-.396 4.163q-.793 5.056 1.982 10.904 2.874 5.75 7.534 8.426 2.18 1.387 5.055.793 2.974-.595 5.353-2.875 1.09-.991.991-1.586-.1-.594-1.586-2.28a28 28 0 0 1-2.379-2.676q-.991-1.388-1.487-1.883-2.379-2.677-2.676-5.353-.198-2.776 1.586-4.164 1.883-1.387 5.055-.793.694.1 2.578 1.983 1.882 1.784 2.379 2.776.99 1.883 1.685 1.288.495-.594.198-6.84-.198-6.244-.793-7.831-.495-1.19-.496-1.486 0-.595-1.487-3.569-2.279-4.758-5.947-6.641m53.571 15.562q3.072-1.388 5.352.496 2.28 1.785 2.28 5.749 0 2.082.298 4.461.297 2.38.297 3.965 0 1.586.397 2.776.396 1.19.594 2.874.198 1.686.595 3.271.496 1.587.694 2.875.099 1.288.595 2.478.594 1.685.694 4.064t-.397 3.371q-.892 1.784-3.172 2.379-2.18.693-3.767-.397-2.28-1.486-2.775-3.271-.298-.991-.595-.991t-1.487 1.09a18.4 18.4 0 0 1-2.875 1.983q-1.585.892-2.478.892-.792 0-2.181.297-1.387.297-5.253-.297-3.37-.496-6.543-3.569-3.171-3.171-3.965-6.641a37 37 0 0 0-.693-2.875q-.496-1.784-.595-4.56-.099-2.973-.298-3.965-.198-1.387-.198-6.145 0-4.858.298-5.849.792-2.874 3.766-3.568 3.073-.794 5.353 1.387.694.695.793 1.685.198.893.298 5.948.099 6.443.495 7.831.397 1.388.595 3.767.297 2.973 1.487 4.758 1.288 1.784 3.271 1.784.892 0 2.181-1.883 1.288-1.883 1.487-3.569a5.3 5.3 0 0 1 .694-1.784q.396-.893.594-4.758.199-3.767.595-4.56.495-.793.595-4.758.099-4.857.694-4.857.198 0 .495-.595.397-.594 1.785-1.289m44.952-26.367q.792-.297 1.982-.198 1.19 0 1.586.297.496.396.694.396.397 0 1.19 1.091t.892 1.685q.099.793.495 1.883.397 1.09.397 28.152.099 26.963-.297 27.756-.397.595-.595 1.09-.496.892-2.478 1.685-1.884.793-3.767.793-1.09 0-2.577.297-1.389.397-6.939.397-5.453.099-6.741-.198-.893-.298-2.874-.694-2.083-.596-5.452-2.478-3.272-1.983-3.272-2.776 0-.099-.793-.991-.793-.991-.793-1.289t-.495-.892q-.793-.992-1.19-4.659-.297-3.767.099-6.245.2-.992.397-2.379.198-1.388.595-1.883a7 7 0 0 0 .694-1.388q1.09-2.973 5.154-5.948 4.064-3.072 8.228-3.865 1.586-.298 2.279-.595.793-.298 5.155-.397t4.659-.297q.396-.198.396-12.688 0-9.417.1-11.102.099-1.686.594-2.379.991-1.686 2.677-2.181m-3.866 40.245q-.397-.396-.892-.396-.496-.1-3.47-.199-3.767 0-4.361.199-4.164 1.09-5.849 2.577t-1.982 4.163q-.496 4.956 1.388 6.443 1.981 1.388 9.417 1.388h1.784q3.469.1 3.965-.496.595-.594.595-3.965v-1.685q.099-4.856 0-6.146-.1-1.288-.595-1.883m44.329-40.245q.793-.297 1.983-.198 1.19 0 1.586.297.495.396.694.396.397 0 1.189 1.091.793 1.09.892 1.685.1.793.496 1.883.397 1.09.397 28.152.1 26.963-.298 27.756a6 6 0 0 0-.595 1.09q-.495.892-2.478 1.685-1.883.793-3.766.793-1.091 0-2.578.297-1.387.397-6.939.397-5.451.099-6.74-.198-.892-.298-2.875-.694-2.082-.596-5.452-2.478-3.271-1.983-3.271-2.776 0-.099-.793-.991-.793-.991-.793-1.289t-.496-.892q-.792-.992-1.189-4.659-.297-3.767.099-6.245.198-.992.397-2.379.198-1.388.594-1.883.397-.595.694-1.388 1.09-2.973 5.155-5.948 4.064-3.072 8.227-3.865 1.586-.298 2.28-.595.793-.298 5.155-.397 4.36-.099 4.659-.297.396-.198.396-12.688 0-9.417.099-11.102.1-1.686.595-2.379.991-1.686 2.676-2.181m-3.866 40.245q-.396-.396-.892-.396-.495-.1-3.469-.199-3.767 0-4.362.199-4.163 1.09-5.848 2.577t-1.983 4.163q-.495 4.956 1.388 6.443 1.983 1.388 9.417 1.388h1.784q3.47.1 3.965-.496.595-.594.595-3.965v-1.685q.099-4.856 0-6.146-.099-1.288-.595-1.883m17.467-14.571q2.18-.299 3.469.198.595.297 1.685 1.586 1.19 1.289 1.388 1.982.198.793.397 1.091l.694 1.387q.396.893.793 1.487.396.496.594 1.19.198.793.496.991.297.198.595 1.19.297 1.09.694 1.487.495.396.594.991.199.495.496.793.793.792 1.784 3.073.397.891.892 1.387.397.497 1.19 1.686.892 1.486 1.586 1.288.693-.198 1.784-2.379.992-1.982 1.289-2.478.396-.397.595-1.09.297-.793.495-.892.297-.298.892-1.289 1.288-2.478 1.785-2.875.297-.495.396-.991.198-.594.397-.892.297-.298 1.685-2.677 1.487-2.478 1.586-2.775.495-1.288 2.181-2.776 1.09-.892 3.172-.793 2.18 0 3.271.893 1.982 1.685 2.081 4.262.2 2.577-1.586 5.155-.495.693-.495.892 0 .297-.892 1.586a22 22 0 0 0-1.289 2.379q-.397.991-.793 1.189t-.595.892a3.6 3.6 0 0 1-.793 1.487q-.396.595-.396.793t-.793 1.289q-1.389 2.082-1.685 2.974-.2.594-.694 1.387-.595.694-.595.992 0 .198-.595.991-.495.694-.496.991 0 .198-.495.892a4.6 4.6 0 0 0-.694 1.388q-.198.496-.694 1.289a10 10 0 0 0-.595 1.189q-.099.397-.495.992-.496.495-.892 1.486-.397.893-.595.992t-.397.892q-.198.693-.594 1.189a5 5 0 0 0-.595 1.19 3.4 3.4 0 0 1-.595 1.189q-.397.596-.892 1.487-1.19 2.181-4.659 8.624-.198.297-.694 1.091-.397.891-.595 1.189-1.09 1.983-1.189 2.28-.694 1.19-.991 1.883-.496.893-.793 1.289-.397.396-.595 1.19-.596 1.784-2.478 3.271-1.784 1.487-3.47 1.487-2.18 0-3.965-2.082-1.784-1.983-1.487-4.362.1-.792.892-2.676.893-1.784 1.289-2.181.297-.198.496-.991.198-.892 2.775-5.155.892-1.685.892-1.982 0-.298.595-1.09.595-.794.595-.992t.396-.694q.298-.396.992-1.586.693-1.486 1.189-2.28 1.884-3.37 1.884-3.965 0-.297-1.586-3.072t-1.983-3.371q-.495-.495-2.28-3.667-.198-.397-1.586-2.677-1.19-1.983-1.586-2.775a13 13 0 0 0-.793-1.388q-.297-.496-1.09-2.082a251 251 0 0 1-1.289-2.478q-2.28-4.46-2.776-6.344-.396-1.983.595-3.866.694-1.388 1.388-1.982.793-.595 2.181-.793m97.524-23.89q.793-.297 2.874-.198t2.875.297q2.18.892 3.172 2.875.397.793.397 7.137.1 6.245-.199 7.831-.198.992-.396 4.262-.198 3.272-.397 4.56-.396 2.38-2.081 3.668-1.587 1.19-3.272.991-1.586-.297-2.874-1.883t-1.19-4.064q0-1.686-.198-1.884-.1-.099-4.163.099-3.965.099-5.75.298-10.11 1.19-10.11-4.659 0-4.957 7.831-5.056 1.883 0 3.072-.198 1.389-.099 4.957-.297 3.37-.2 4.064-.496.793-.297.892-1.388.198-1.487-.198-1.685-.297-.297-2.28-.099a80 80 0 0 1-4.163.099q-1.983 0-6.642.198-4.163.299-5.154 0-2.875-.99-3.073-4.064-.199-3.072 2.577-4.46 1.586-.893 6.146-.992 3.271-.099 4.46-.297 1.09-.198 4.759-.298 3.568-.198 4.064-.297m26.962.694q1.387-.495 3.073.198a5.23 5.23 0 0 1 2.676 2.082q.397.595.397 3.172.099 2.478 0 17.248 0 19.924-.198 23.394-.1 3.27-.298 9.119-.099 5.552-.595 6.443-1.288 2.48-3.965 2.677-2.577.198-4.262-2.082-1.289-1.784-.991-5.353v-.396q.1-1.388-.595-1.586-.595-.298-4.56-.397-.793 0-1.289-.099a706 706 0 0 0-9.317-.099q-4.857 0-6.84-1.189-1.884-1.19-1.883-4.065 0-2.577 1.883-3.865 1.983-1.29 5.254-.793 2.18.297 9.813.297 7.633-.099 7.732-.496.297-.396.496-10.21.198-9.912.099-18.14.099-5.353-.099-8.128-.1-2.875.396-4.461.595-1.684 1.09-2.181.596-.495 1.983-1.09m-18.14 31.621q4.659-.693 7.434.595 2.776 1.289 2.776 4.163 0 .992-.198 1.091-.2.099-.298.694-.495 1.784-2.379 2.379-1.784.594-8.029.793-10.706.297-11.201.594-.198.099-.198 2.28 0 1.785-.199 4.957a545 545 0 0 0-.396 5.848q-.198 2.676-.496 3.767-.297 1.09-1.289 2.081-2.08 2.082-4.559 1.289t-3.271-3.767q-.595-2.081-.199-5.848.991-8.129.496-9.516-.198-.496-.694-.496-.396-.099-3.965.198-3.37.199-4.857-.099-1.387-.297-2.577-1.388-1.487-1.288-1.487-3.469 0-2.28 1.487-3.568.891-.794 1.883-.992 1.09-.297 4.659-.396 9.814-.496 12.688-.793 1.685-.199 7.831-.199 6.145 0 7.038-.198m81.07-30.431q1.883-.793 3.766.297 1.884.991 2.578 3.172.297 1.19.396 14.175.099 12.887-.198 20.321-.099 1.388-.297 5.154-.1 3.768-.1 5.155-.198 5.65-.396 6.443a7.4 7.4 0 0 0-.198 1.586q0 3.272-2.974 4.56-2.875 1.289-5.056-1.09-1.19-1.29-1.387-2.379-.099-1.19.099-7.931.595-18.337.595-33.802 0-10.705.396-12.688.396-1.982 2.776-2.973m-26.17 8.128q6.345-.198 7.831.099 1.488.198 2.875 1.586 1.685 1.685 1.189 3.866-.396 2.18-2.775 3.469-.694.397-5.452.496-10.21.397-12.093.892-.496.199-.595.694 0 .396-.099 3.073-.198 4.163-.397 6.245-.396 5.452-.396 7.137.099 1.586.495 1.784.595.198 9.913.298 7.732 0 9.12.198a5.2 5.2 0 0 1 2.676 1.189q1.685 1.586 1.09 4.065-.594 2.478-2.874 3.568-2.974 1.387-22.601.496-3.172-.1-4.659-.892-1.387-.793-2.379-2.776-.396-.892-.496-3.965-.1-3.172.298-5.948.198-1.487.297-9.813.198-7.533.496-9.318.297-1.884 1.784-3.37 2.379-2.478 7.633-2.478 1.388 0 2.676-.199 1.388-.198 6.443-.396" fill="#000"/><rect x="286" y="167" width="459" height="144" rx="72" stroke="#000" stroke-width="8"/><path d="M916.856 405.452q3.543-.154 7.194 1.326 3.67 1.39 5.975 3.803 2.305 2.411 4.255 6.83t1.996 7.179q-.01.471.219 1.566.2.803.207 2.037-.062 1.125.028 1.997.179.894-.045 2.74-.244 1.937-.175 2.9.05 1.054-.335 2.77-.364 1.625-.857 2.557-.494.933-1.179 3.15-.707 2.307-.897 2.738-.282.411-1.068 2.226-.916 1.977-1.459 2.708-.865 1.323-.355 2.86.53 1.445 3.862 7.311 1.572 2.723 1.72 4.178.168 1.365-.917 2.829-1.067 1.373-2.09 1.712-.935.36-2.469.017-1.626-.364-2.968-1.992t-4.415-6.961q-.54-.974-.922-.965-.27-.06-1.777.74-3.125 1.671-3.756 1.53-.271-.061-1.205.299a6.5 6.5 0 0 1-1.676.288q-.652-.05-1.837.158-1.275.188-4.886-.619-3.501-.879-4.825-1.744-7.99-5.391-10.303-15.39-.38-1.697-.339-1.877.062-.271-.198-1.657-.238-1.475-.127-2.398a5.8 5.8 0 0 0-.047-1.907q-.208-1.185.963-6.422 1.173-5.236 1.846-6.129.654-.802 1.168-2.677.625-1.947 1.36-3.109.755-1.254.986-1.866.806-1.905 4.485-5.633 1.336-1.312 1.598-1.633.502-.552 2.602-1.883 2.12-1.422 2.832-1.642.332-.21 2.089-.859 1.577-.69 1.757-.65.181.04.984-.159.713-.22 3.001-.277m5.422 11.359q-1.032-.895-1.955-1.007-.903-.201-3.051.076l-2.62.267q-2.127.188-5.554 3.213-3.337 3.046-4.304 5.674-.484 1.314-.725 1.544-.372.391-1.008 2.809a86 86 0 0 1-1.21 3.711q-1.753 4.444-.417 10.336 1.446 5.823 5.144 9.211 1.704 1.708 4.443 1.753 2.83.064 5.462-1.527 1.196-.68 1.226-1.243.031-.562-.979-2.4a26 26 0 0 1-1.622-2.923q-.62-1.465-.97-2.019-1.621-2.922-1.347-5.421.386-2.569 2.294-3.469 1.998-.88 4.766.309.612.231 1.944 2.331 1.351 2.009 1.601 3.013.519 1.917 1.272 1.517.573-.441 1.575-6.189 1.092-5.73.874-7.295-.209-1.185-.148-1.455.12-.543-.627-3.554-1.106-4.799-4.064-7.262m835.662-284.61q4.335.67 5.25 5.302c.09.851.08 1.469-.04 1.856-.07.317-.41 1.124-1 2.42-.85 1.787-1.23 3.017-1.13 3.691.05.744-.49 2.289-1.63 4.636-1.08 2.383-3.69 7.53-7.84 15.44q-5.79 11.026-7.98 14.695-2.085 3.725-3.33 4.549-.855.62-1.89 2.085c-.62 1.013-1.28 1.743-1.96 2.189a13 13 0 0 0-1.78 1.875q-.93.989-1.89 1.554c-.71.339-1.13.614-1.24.824-.36.7-2.22 1.512-5.56 2.436-3.31.855-5.91 1.228-7.82 1.119-4.63-.374-8.46-1.492-11.5-3.356-3.01-1.757-5.9-4.66-8.69-8.711-.85-1.255-1.67-3.198-2.43-5.83-.72-2.702-1.05-4.883-.98-6.544.05-4.525.31-7.561.76-9.108q.285-1.055.3-1.851c.06-.953.6-2.587 1.64-4.901.85-1.963 1.28-3.387 1.3-4.27.13-1.094 2.2-5.456 6.2-13.086 4.04-7.7 6.48-11.825 7.3-12.375.65-.553 1.87-2.456 3.67-5.709q2.25-4.305 3.18-5.295c.68-.623 1.93-1.04 3.73-1.252.47-.027 1.43.346 2.9 1.118 1.54.808 2.47 1.427 2.77 1.858 2.03 2.94 1.53 6.112-1.51 9.518-1.19 1.249-4.36 6.774-9.5 16.574-5.08 9.837-7.9 15.723-8.47 17.656-.45 1.724-.67 2.816-.64 3.276q.09.586-.36 1.956-.345 1.425-.15 2.331c.02.637-.01 1.025-.08 1.165-.22.42-.1 1.643.35 3.667.46 2.025.94 3.484 1.46 4.378q2.25 4.129 6.99 5.549 4.8 1.315 8.04-1.274.855-.62 1.23-.824 1.725-.975 3.09-3.069c.62-1.013 1.24-1.762 1.85-2.245s1.68-2.017 3.22-4.604c1.5-2.693 2.32-4.092 2.47-4.195.35-.17.88-.831 1.57-1.984.74-1.224 1.22-2.31 1.45-3.261q.57-1.845 4.65-9.88 3.09-6.145 3.54-7.251.495-1.21.51-2.005c-.02-.814.69-2.586 2.12-5.316 1.36-2.59 2.53-4.211 3.49-4.864 1.01-.723 2.46-.942 4.37-.657M1024.89 23.873q.78-.876 6.66-3.93 5.865-3.055 6.72-3.171a7.8 7.8 0 0 0 1.69-.232c1.61-.41 3.35-.479 5.25-.209.75.127 1.6.235 2.56.324q1.305.094 5.43 1.402c2.81.84 4.41 1.418 4.81 1.735q.735.515 1.38.854c.45.136.82.393 1.1.773q.42.57 1.38 1.08.87.555 1.29 1.126c.31.29.72.635 1.24 1.038.58.37.93.674 1.06.909s.56.686 1.3 1.35q1.89 1.602 2.22 2.22c.19.353.55.73 1.07 1.133q.825.692 1.86 1.961c.46.584.98 1.256 1.54 2.016.99 1.136 2.07 3.061 3.23 5.777 1.22 2.684 1.96 4.755 2.21 6.213.12.774.27 1.487.47 2.139q.99 2.886 0 10.14c-.19 1.472-.6 3.1-1.24 4.884-.66 1.726-1.32 3.107-1.97 4.145a2.2 2.2 0 0 0-.47.822c-.17.394-1.06 1.484-2.68 3.269-.9 1.015-1.39 1.584-1.48 1.706q-1.125 1.29-7.44 4.584c-4.15 2.163-6.71 3.245-7.7 3.246q-1.845-.033-3.03-.759c-.77-.574-1.51-1.538-2.24-2.89-.48-.734-1.02-1.39-1.64-1.97-.61-.578-1.6-2.058-2.96-4.439-1.39-2.29-2.25-3.609-2.59-3.957-.37-.407-1.28-1.815-2.74-4.222q-2.265-3.789-3.48-5.41c-.78-1.023-2.57-4.123-5.36-9.3-2.83-5.237-5.04-9.476-6.64-12.716-1.72-3.476-2.62-5.916-2.69-7.32-.11-1.462.52-2.902 1.88-4.32m16.22 3.668c-.86.236-1.96.72-3.32 1.45q-1.935 1.047-2.01 1.543-.12.408 6.78 13.204c4.57 8.473 7.14 13.014 7.69 13.625.56.61 1.56 2.12 3.02 4.528 1.41 2.349 2.45 3.842 3.1 4.48.61.579 1 1.015 1.16 1.31q.33.617 1.05.46c.53-.136 1.49-.614 2.87-1.435a15.54 15.54 0 0 0 5.36-5.057c1.34-2.166 1.96-4.249 1.87-6.25.01-.54.06-.944.14-1.216.08-.421.1-1.08.07-1.977q-.045-1.345-.24-1.921a3.44 3.44 0 0 1-.23-1.698q.105-.856-2.28-5.493c-1.59-3.091-2.63-4.734-3.11-4.928q-1.23-.59-1.95-1.914c-.16-.294-.46-.584-.92-.868a13 13 0 0 1-1.43-1.167c-.4-.466-.88-.93-1.43-1.392-.61-.43-1.05-.805-1.29-1.126-1.28-1.516-3.56-2.716-6.85-3.6-3.23-.917-5.91-1.103-8.05-.558M80.422 79.63q1.305-.474 9.13-.355 7.828.118 8.776.474a9.3 9.3 0 0 0 1.898.711q2.846.712 5.573 2.728a43 43 0 0 0 2.49 1.779q1.305.83 4.863 4.506 3.675 3.676 4.031 4.506.475.95.949 1.66.593.594.712 1.424.118.83.83 1.897.593 1.067.711 1.897.237.712.712 1.779.593 1.067.593 1.542 0 .474.593 2.134 1.067 2.728 1.067 3.558 0 .711.474 1.779.475 1.185.83 3.083.238 1.305.475 2.965.593 2.609.118 7.826-.355 5.218-1.186 7.708-.474 1.305-.711 2.491-.593 3.557-5.692 10.554-1.542 2.135-4.032 4.388-2.49 2.135-4.388 3.201-.592.238-.949.593-.592.475-4.624 1.898-2.253.83-2.491.948-1.897.712-10.317.593-8.301-.118-9.842-.948-1.897-1.068-2.728-2.491-.711-1.54-.711-4.269a12.3 12.3 0 0 0-.593-2.964q-.475-1.424-.593-6.285-.237-4.744-.475-5.574-.237-.95-.474-5.929-.237-5.219-.593-7.59-.356-2.253-.356-12.689 0-10.554.237-16.958.238-6.878 1.305-9.13 1.068-2.372 4.388-3.44m14.823 12.926q-1.541-.356-4.27-.356-2.608 0-2.964.475-.356.355-.356 17.551 0 17.076.356 18.499t.593 6.404q.237 4.862.712 6.403.474 1.424.474 2.016 0 .831.83 1.068.948.237 3.795.118 4.507-.119 8.419-2.253 3.914-2.253 5.455-5.455.475-.83.831-1.186.474-.593 1.185-2.016t.831-2.134a3.96 3.96 0 0 1 .711-1.898q.593-.83.712-6.996t-.475-6.878q-.948-1.305-.948-3.083 0-.593-.475-1.424a15 15 0 0 1-.83-2.016 15 15 0 0 0-.711-2.253q-.594-1.186-.712-1.897-.711-3.44-5.099-7.59-4.269-4.15-8.064-5.099m177.273 471.6q3.202-1.186 5.693.711 2.609 1.78 2.609 5.218 0 2.135-1.305 4.269-1.186 2.135-8.301 12.215a57 57 0 0 1-1.423 1.897q-.356.593-1.304 1.898-1.305 1.778-1.661 2.371a21 21 0 0 1-1.304 1.779q-.474.474-1.423 1.897-.712 1.186-2.253 2.728-1.305 1.423-1.423 2.016-.119.474 0 14.586.119 13.993.237 16.484.593 10.554-6.404 10.672-1.898 0-3.083-.711-1.187-.711-2.49-2.846l-.712-1.305v-21.82q0-9.367-.119-11.028t-.711-2.372a1.9 1.9 0 0 1-.356-.474 68 68 0 0 1-1.897-2.491 67 67 0 0 0-2.135-2.846q-1.303-1.541-2.016-2.727-.592-.95-1.66-2.016a183 183 0 0 1-4.15-5.811q-.593-.948-1.068-1.423-.83-1.067-3.202-4.625t-2.727-4.387q-1.305-2.491-.474-6.167.474-2.49 2.846-3.439 2.372-1.067 4.862-.237 2.608.711 3.913 3.083.593 1.186 1.067 1.898.119.236.593 1.067l.712 1.067q.711 1.067 2.49 3.321 1.66 2.371 2.135 2.964 2.49 3.558 3.913 5.099.474.594.712 1.186.237.475.355.475.237 0 .949 1.304.83 1.779 1.542 1.423.711-.356 2.846-3.557 1.185-1.898 1.541-2.491a11 11 0 0 1 .949-1.423q.474-.711 1.779-2.609.83-1.185 2.49-3.676a131 131 0 0 0 3.676-5.573q2.847-4.626 5.692-5.574" fill="#D8B18E" fill-opacity=".41"/><g clip-path="url(#d)"><path d="M1282.69 426.529c-13.09 27.695-28.94 40.35-40.18 73.214-6.42 18.765-14.57 40.652-18.4 61.599-4.26 23.297-.44 48.205 4.36 66.131 3.46 12.89 17.96 30.984 39.99 36.858 13.56 3.626 118.86 10.071 134.71 9.232 16.38-.839 42.93 1.41 58.07-.134 17.46-1.78 33-.504 46.86-2.887 24.81-4.23 36.63-9.433 46.19-30.414 8.6-18.832-.7-32.897-4.96-59.45-2.92-18.127-1.41-35.013-5.71-52.905-7.32-30.313-11.95-24.908-19.94-51.998" fill="#DFB089"/><path d="M1282.69 426.529c-13.09 27.695-28.94 40.35-40.18 73.214-6.42 18.765-14.57 40.652-18.4 61.599-4.26 23.297-.44 48.205 4.36 66.131 3.46 12.89 17.96 30.984 39.99 36.858 13.56 3.626 118.86 10.071 134.71 9.232 16.38-.839 42.93 1.41 58.07-.134 17.46-1.78 33-.504 46.86-2.887 24.81-4.23 36.63-9.433 46.19-30.414 8.6-18.832-.7-32.897-4.96-59.45-2.92-18.127-1.41-35.013-5.71-52.905-7.32-30.313-11.95-24.908-19.94-51.998" stroke="#231815" stroke-width="10.071" stroke-linecap="round" stroke-linejoin="round"/><path d="M1269.5 560.973c17.99 6.681 16.92 9.265 35.31 14.771 16.25 4.867 29.61 5.706 34.28 3.289 10.47-5.471 18.06-7.485 18.86-17.791.57-7.419 1.62-17.389-6.21-29.239-7.82-11.849-25.68-16.146-39.61-24.673-20.84-12.756-17.82-15.374-39.61-24.035" fill="#DFB089"/><path d="M1269.5 560.973c17.99 6.681 16.92 9.265 35.31 14.771 16.25 4.867 29.61 5.706 34.28 3.289 10.47-5.471 18.06-7.485 18.86-17.791.57-7.419 1.62-17.389-6.21-29.239-7.82-11.849-25.68-16.146-39.61-24.673-20.84-12.756-17.82-15.374-39.61-24.035" stroke="#231815" stroke-width="10.071" stroke-linecap="round" stroke-linejoin="round"/><path d="M1512.71 504.074c-18.8 1.914-18.94-.906-38.31 5.304-11.74 3.76-20.34 16.986-29.91 24.573-10.13 8.056-15.5 16.247-15.14 29.977-2.68 12.689 5.34 18.53 21.09 17.523 10.44-.672 22.15-7.688 33.33-10.575 17.93-4.632 16.55-4.364 32.76-10.272" fill="#DFB089"/><path d="M1512.71 504.074c-18.8 1.914-18.94-.906-38.31 5.304-11.74 3.76-20.34 16.986-29.91 24.573-10.13 8.056-15.5 16.247-15.14 29.977-2.68 12.689 5.34 18.53 21.09 17.523 10.44-.672 22.15-7.688 33.33-10.575 17.93-4.632 16.55-4.364 32.76-10.272" stroke="#231815" stroke-width="9.534" stroke-linecap="round" stroke-linejoin="round"/><path d="M1429.25 561.745c2.15 5.639 1.71 11.715-1.68 16.382-5.84 8.023-18.32 8.895-27.86 1.947-9.53-6.949-12.52-19.101-6.64-27.124 2.18-3.021 5.33-5.002 8.86-5.975" fill="#231815"/><path d="M1429.25 561.745c2.15 5.639 1.71 11.715-1.68 16.382-5.84 8.023-18.32 8.895-27.86 1.947-9.53-6.949-12.52-19.101-6.64-27.124 2.18-3.021 5.33-5.002 8.86-5.975" stroke="#231815" stroke-width="10.071" stroke-linecap="round" stroke-linejoin="round"/><path d="M1424.22 161.302c-8.09-.973-12.93-2.786-13.7-10.91-1.07-11.715-1.61-31.588-9.83-46.862-7.05-13.058-21.59-25.177-38.34-29.843-12.02-3.357-29.17-4.162-48.04 1.343-18.86 5.505-26.58 18.832-32.63 28.198-8.25 12.722-6.74 25.982-3.15 40.048 4.56 17.724 11.81 34.408 11.68 41.759-.23 11.749-7.55 24.908-18.87 39.343-7.78 9.903-23.83 16.785-31.89 30.951-6.44 11.346-23.06 31.051-25.98 64.452-2.45 28.164 6.75 43.505 10.68 59.115 2.78 11.078 34.44 49.245 46.15 57.738 9.3 6.748 19.94 11.078 33.2 16.617 10.75 4.498 20.25 14.871 34.01 18.261 11.48 2.82 24.03 5.539 37.83 7.419 11.88 1.611 24.67 2.988 38.4 3.76 13.7.772 26.29-3.928 37.9-4.096 14.03-.235 27.16 7.083 38.41 5.674 14.4-1.813 59.51-25.546 67.74-32.092 11.91-9.534 22.15-16.852 25.28-27.158 5.06-16.784 7.08-38.671.94-85.936-5.21-39.88-19.61-50.689-16.29-78.484 1.51-12.689 34.55-34.375 34.55-83.889 0-11.313-5.21-22.323-11.95-39.275-5.34-13.428-24.14-23.432-35.39-27.795-11.24-4.364-27.69-2.417-40.65.402-12.22 2.686-21.35 14.905-31.42 22.324-10.71 7.888-18.66 16.079-22.82 27.425-4.77 13.059-22.06 3.223-35.79 1.545z" fill="#DFB089" stroke="#231815" stroke-width="10.071" stroke-linecap="round" stroke-linejoin="round"/><path d="M1372.39 295.477c8.39 0 15.2-10.445 15.2-23.33s-6.81-23.331-15.2-23.331c-8.4 0-15.21 10.446-15.21 23.331s6.81 23.33 15.21 23.33m92.14 6.545c8.4 0 15.21-10.445 15.21-23.33s-6.81-23.331-15.21-23.331c-8.39 0-15.2 10.446-15.2 23.331s6.81 23.33 15.2 23.33m-53.84 100.003c22.95 0 41.56-18.606 41.56-41.558s-18.61-41.559-41.56-41.559-41.56 18.607-41.56 41.559 18.61 41.558 41.56 41.558" fill="#231815" stroke="#231815" stroke-width="10.071" stroke-linecap="round" stroke-linejoin="round"/><path d="M1483 349.826c0 39.947-32.39 72.341-72.34 72.341s-72.34-32.394-72.34-72.341" stroke="#231815" stroke-width="10.071" stroke-linecap="round" stroke-linejoin="round"/><path d="M1362.48 163.148c20.14-47.063-36.72-60.759-36.72-60.759m191.37 43.908s56.9 13.696 36.73 60.76" stroke="#BB7950" stroke-width="10.071" stroke-miterlimit="10" stroke-linecap="round"/><path d="M1371.92 540.363c7.05-2.484 14.6-1.611 20.04 3.055 8.69 7.452 8.66 21.753-.1 31.958-8.77 10.205-22.9 12.454-31.59 5.001-5.07-4.364-7.19-11.044-6.31-17.892" fill="#231815"/><path d="M1371.92 540.363c7.05-2.484 14.6-1.611 20.04 3.055 8.69 7.452 8.66 21.753-.1 31.958-8.77 10.205-22.9 12.454-31.59 5.001-5.07-4.364-7.19-11.044-6.31-17.892" stroke="#231815" stroke-width="10.004" stroke-linecap="round" stroke-linejoin="round"/><path d="M1391.18 588.533c37.06-14.67 76.07-67.742 35.89-81.17-29.91-10.003-35.92 21.317-35.92 21.317s-3.86-32.462-33.1-22.357c-40.05 13.83-3.93 67.54 33.13 82.21" fill="#E43914" stroke="#040000" stroke-width="10.004" stroke-linecap="round" stroke-linejoin="round"/></g><path fill-rule="evenodd" clip-rule="evenodd" d="M1696.81 494c12.25 0 22.19 9.936 22.19 22.192s-9.94 22.192-22.19 22.192h-69.16c-4.32 0-8.35-1.235-11.76-3.37-3.09 2.372-8.14 3.676-12.79 3.876-1.4.06-1.64-1.86-.45-2.601 3.46-2.157 5.49-5.063 6.83-7.354a22.1 22.1 0 0 1-4.02-12.743c0-12.256 9.94-22.192 22.19-22.192z" fill="#F4EDE7"/><path d="m1615.89 535.014-.61-.793.56-.423.58.369zm-12.79 3.876.04.999zm-.45-2.601-.53-.849zm6.83-7.354.82-.574.37.525-.32.555zM1718 516.192c0-11.704-9.49-21.192-21.19-21.192v-2c12.81 0 23.19 10.383 23.19 23.192zm-21.19 21.192c11.7 0 21.19-9.488 21.19-21.192h2c0 12.809-10.38 23.192-23.19 23.192zm-69.16 0h69.16v2h-69.16zm-11.23-3.217a21.1 21.1 0 0 0 11.23 3.217v2c-4.51 0-8.72-1.29-12.29-3.522zm.08 1.64c-3.32 2.548-8.6 3.877-13.36 4.082l-.09-1.999c4.55-.195 9.37-1.473 12.23-3.669zm-13.36 4.082c-.6.025-1.14-.164-1.55-.537a2.24 2.24 0 0 1-.68-1.312c-.14-.925.24-2 1.21-2.6l1.05 1.698a.62.62 0 0 0-.28.601c.01.094.05.13.05.135 0 .002.01.004.02.007 0 .003.03.012.09.009zm-1.02-4.449c3.27-2.034 5.2-4.781 6.5-7.01l1.73 1.011c-1.38 2.353-3.51 5.416-7.18 7.697zm4.34-19.248c0 4.53 1.42 8.725 3.84 12.169l-1.63 1.149a23.1 23.1 0 0 1-4.21-13.318zM1627.65 495c-11.7 0-21.19 9.488-21.19 21.192h-2c0-12.809 10.39-23.192 23.19-23.192zm69.16 0h-69.16v-2h69.16z" fill="#666"/><path fill-rule="evenodd" clip-rule="evenodd" d="M1087.19 420c-12.25 0-22.19 9.936-22.19 22.192s9.94 22.192 22.19 22.192h76.02c4.18 0 8.08-1.155 11.42-3.163 3.3 2.241 8.48 3.474 13.27 3.668 1.42.058 1.66-1.905.44-2.627-3.55-2.097-5.68-4.891-7.09-7.143a22.1 22.1 0 0 0 4.15-12.927c0-12.256-9.94-22.192-22.19-22.192z" fill="#F4EDE7"/><path d="m1174.63 461.221.56-.827-.53-.36-.54.33zm13.27 3.668.04-.999zm.44-2.627.51-.861zm-7.09-7.143-.82-.583-.39.546.36.57zM1066 442.192c0-11.704 9.49-21.192 21.19-21.192v-2c-12.81 0-23.19 10.383-23.19 23.192zm21.19 21.192c-11.7 0-21.19-9.488-21.19-21.192h-2c0 12.809 10.38 23.192 23.19 23.192zm76.02 0h-76.02v2h76.02zm10.91-3.02a21.1 21.1 0 0 1-10.91 3.02v2c4.36 0 8.45-1.207 11.94-3.306zm-.05 1.684c3.51 2.387 8.91 3.643 13.79 3.841l.08-1.999c-4.69-.19-9.66-1.401-12.75-3.496zm13.79 3.841c.61.024 1.15-.171 1.56-.549.4-.367.61-.852.68-1.327a2.61 2.61 0 0 0-1.25-2.612l-1.02 1.722c.23.135.32.388.29.6-.01.099-.05.139-.06.147 0 .003 0 .007-.01.01a.3.3 0 0 1-.11.01zm.99-4.488c-3.36-1.984-5.38-4.631-6.76-6.814l-1.69 1.065c1.46 2.319 3.69 5.261 7.43 7.471zm-4.45-19.209c0 4.607-1.47 8.868-3.97 12.344l1.63 1.166a23.1 23.1 0 0 0 4.34-13.51zM1163.21 421c11.7 0 21.19 9.488 21.19 21.192h2c0-12.809-10.38-23.192-23.19-23.192zm-76.02 0h76.02v-2h-76.02z" fill="#666"/><path fill-rule="evenodd" clip-rule="evenodd" d="M1032.19 355c-12.25 0-22.19 9.936-22.19 22.192s9.94 22.192 22.19 22.192h91.69c3.89 0 7.55-1.002 10.73-2.763 3.73 1.987 9.21 3.086 14.29 3.268 1.45.053 1.69-1.996.4-2.677-3.74-1.977-6.07-4.559-7.65-6.722a22.08 22.08 0 0 0 4.42-13.298c0-12.256-9.93-22.192-22.19-22.192z" fill="#F4EDE7"/><path d="m1134.61 396.621.47-.883-.48-.255-.47.263zm14.29 3.268.04-.999zm.4-2.677-.47.885zm-7.65-6.722-.8-.6-.45.593.44.598zM1011 377.192c0-11.704 9.49-21.192 21.19-21.192v-2c-12.81 0-23.19 10.383-23.19 23.192zm21.19 21.192c-11.7 0-21.19-9.488-21.19-21.192h-2c0 12.809 10.38 23.192 23.19 23.192zm91.69 0h-91.69v2h91.69zm10.25-2.638a21.1 21.1 0 0 1-10.25 2.638v2c4.07 0 7.89-1.047 11.22-2.888zm.01 1.758c3.92 2.085 9.56 3.199 14.72 3.385l.08-1.999c-5-.18-10.31-1.262-13.86-3.152zm14.72 3.385c.62.022 1.17-.184 1.58-.574a2.3 2.3 0 0 0 .68-1.356 2.58 2.58 0 0 0-1.35-2.631l-.94 1.769c.23.12.34.368.31.596-.02.106-.06.156-.07.17 0 0-.02.031-.13.027zm.91-4.561c-3.57-1.884-5.79-4.343-7.32-6.429l-1.61 1.182c1.64 2.24 4.08 4.945 7.99 7.016zm-4.7-19.136a21.1 21.1 0 0 1-4.22 12.698l1.6 1.199a23.1 23.1 0 0 0 4.62-13.897zM1123.88 356c11.7 0 21.19 9.488 21.19 21.192h2c0-12.809-10.38-23.192-23.19-23.192zm-91.69 0h91.69v-2h-91.69z" fill="#666"/><path d="m1101.17 449 2.46-14.985h1.46L1102.63 449zm-6.82-4.156.24-1.463h11.18l-.24 1.463zm1.55 4.156 2.46-14.985h1.46L1097.37 449zm-.67-9.365.23-1.464h11.18l-.23 1.464zm22.73-1.349h1.69v3.523h-1.69zm6.85 0h1.68v3.523h-1.68zm-11.01 2.905h16.84v1.381h-16.84zm8.41 2.782c4 0 6.39 1.174 6.39 3.296s-2.39 3.318-6.39 3.318-6.39-1.196-6.39-3.318 2.39-3.296 6.39-3.296m0 1.318c-2.91 0-4.66.721-4.66 1.978 0 1.278 1.75 1.978 4.66 1.978 2.93 0 4.66-.7 4.66-1.978 0-1.257-1.73-1.978-4.66-1.978m.02-12.98c4.04 0 6.55 1.298 6.55 3.482 0 2.163-2.51 3.441-6.55 3.441-4.06 0-6.55-1.278-6.55-3.441 0-2.184 2.49-3.482 6.55-3.482m0 1.339c-2.97 0-4.8.783-4.8 2.143 0 1.339 1.83 2.122 4.8 2.122s4.8-.783 4.8-2.122c0-1.36-1.83-2.143-4.8-2.143m24.11-1.669h1.71v18.626h-1.71zm-5.47 1.999h1.69c0 5.398-2.43 10.116-8.65 13.166l-.91-1.381c5.38-2.596 7.87-6.552 7.87-11.497zm-7.02 0h7.77v1.401h-7.77zM1048.17 383l2.46-14.985h1.46L1049.63 383zm-6.82-4.156.24-1.463h11.18l-.24 1.463zm1.55 4.156 2.46-14.985h1.46L1044.37 383zm-.67-9.365.23-1.464h11.18l-.23 1.464zm20.74-6.686h11.99v1.401h-11.99zm-2.17 7.006h16.9v1.38h-16.9zm13.05-7.006h1.66v1.381c0 1.586 0 3.482-.61 6.078l-1.67-.206c.62-2.534.62-4.327.62-5.872zm-4.64 10.612c4 0 6.47 1.277 6.47 3.502s-2.47 3.503-6.47 3.503-6.45-1.278-6.45-3.503 2.45-3.502 6.45-3.502m0 1.401c-2.95 0-4.74.762-4.74 2.101s1.79 2.102 4.74 2.102 4.74-.763 4.74-2.102-1.79-2.101-4.74-2.101m20.5-8.16h4.2v1.422h-4.2zm3.67-4.821h1.71v11.106h-1.71zm-4.41 11.662c3.83 0 6.2 1.298 6.2 3.482 0 2.205-2.37 3.462-6.2 3.462-3.86 0-6.23-1.257-6.23-3.462 0-2.184 2.37-3.482 6.23-3.482m0 1.339c-2.81 0-4.52.783-4.52 2.143 0 1.339 1.71 2.122 4.52 2.122 2.8 0 4.51-.783 4.51-2.122 0-1.36-1.71-2.143-4.51-2.143m-4.45-11.126h1.4v1.504c0 3.441-2.1 6.387-5.19 7.541l-.89-1.36c2.76-1.009 4.68-3.502 4.68-6.181zm.33 0h1.38v1.504c0 2.411 1.81 4.718 4.51 5.666l-.87 1.36c-3.03-1.092-5.02-3.894-5.02-7.026zm-4.5-.515h9.96v1.401h-9.96zm23.12.536h1.4v1.504c0 3.399-2.1 6.305-5.21 7.458l-.89-1.359c2.78-.989 4.7-3.462 4.7-6.099zm.33 0h1.38v1.504c0 2.39 1.81 4.718 4.51 5.666l-.86 1.36c-3.03-1.113-5.03-3.915-5.03-7.026zm4.88 2.946h4.14v1.422h-4.14zm-9.37-3.565h9.95v1.381h-9.95zm2.31 10.879h12.42v6.47h-1.71v-5.068h-10.71zm10.71-12.156h1.71v11.147h-1.71zM1641.17 523l2.46-14.985h1.46L1642.63 523zm-6.82-4.156.24-1.463h11.18l-.24 1.463zm1.55 4.156 2.46-14.985h1.46L1637.37 523zm-.67-9.365.23-1.464h11.18l-.23 1.464zm32.05-7.654h1.71v18.626h-1.71zm-13.13 14.979-.22-1.442c3.52-.021 8.16-.021 12.17-.556l.13 1.277c-4.16.68-8.64.742-12.08.721m.17-12.486h11.31v1.401h-11.31zm5.64 2.411c2.64 0 4.47 1.401 4.47 3.502s-1.83 3.503-4.47 3.503c-2.61 0-4.43-1.401-4.43-3.503 0-2.101 1.82-3.502 4.43-3.502m0 1.36c-1.67 0-2.82.844-2.82 2.142s1.15 2.185 2.82 2.185c1.69 0 2.85-.886 2.85-2.185s-1.16-2.142-2.85-2.142m-.84-6.079h1.71v3.194h-1.71zm14.42 1.216h8.55v8.015h-8.55zm6.88 1.381h-5.21v5.274h5.21zm5.09-2.782h1.71v11.003h-1.71zm1.24 4.615h3.23v1.443h-3.23zm-5.46 7.026c3.79 0 6.12 1.298 6.12 3.482 0 2.205-2.33 3.483-6.12 3.483s-6.12-1.278-6.12-3.483c0-2.184 2.33-3.482 6.12-3.482m0 1.381c-2.76 0-4.45.762-4.45 2.101 0 1.34 1.69 2.123 4.45 2.123s4.45-.783 4.45-2.123c0-1.339-1.69-2.101-4.45-2.101" fill="#343434"/></g><defs><clipPath id="a"><path fill="#fff" d="M0 0h1920v617H0z"/></clipPath><clipPath id="b"><path fill="#fff" d="m979.602 42.001 851.254 174.722-182.594 889.611-851.254-174.721z"/></clipPath><clipPath id="d"><path fill="#fff" d="M1208 66h456v614.009h-456z"/></clipPath></defs></svg>